<svg xmlns="http://www.w3.org/2000/svg" width="73" height="70.097" viewBox="0 0 73 70.097"><path d="M-3232.707-625.722h-22.771a6.9,6.9,0,0,1-6.8,5.818,6.919,6.919,0,0,1-6.909-6.911,6.918,6.918,0,0,1,6.909-6.907,6.9,6.9,0,0,1,6.8,5.818h22.771a6.9,6.9,0,0,1,6.8-5.818,6.916,6.916,0,0,1,6.907,6.907,6.917,6.917,0,0,1-6.907,6.911A6.9,6.9,0,0,1-3232.707-625.722Zm2.069-1.093a4.734,4.734,0,0,0,4.729,4.73,4.734,4.734,0,0,0,4.729-4.73,4.733,4.733,0,0,0-4.729-4.726A4.733,4.733,0,0,0-3230.637-626.815Zm-36.365,0a4.731,4.731,0,0,0,4.727,4.73,4.733,4.733,0,0,0,4.728-4.73,4.733,4.733,0,0,0-4.728-4.726A4.73,4.73,0,0,0-3267-626.815Zm40,0a1.089,1.089,0,0,1,1.09-1.09,1.09,1.09,0,0,1,1.09,1.09,1.091,1.091,0,0,1-1.09,1.093A1.09,1.09,0,0,1-3227-626.815Zm-36.369,0a1.091,1.091,0,0,1,1.09-1.09,1.092,1.092,0,0,1,1.093,1.09,1.093,1.093,0,0,1-1.093,1.093A1.092,1.092,0,0,1-3263.367-626.815Zm-.416-10.546a8.331,8.331,0,0,1-8.142-6.448l-10.12-43.008h-7.863a1.092,1.092,0,0,1-1.094-1.089,1.094,1.094,0,0,1,1.094-1.094h8.727a1.092,1.092,0,0,1,1.061.842l2.542,10.8h51.668a6.917,6.917,0,0,1,6.907,6.908v26.183a6.915,6.915,0,0,1-6.907,6.907Zm-6.018-6.946a6.157,6.157,0,0,0,6.018,4.764h37.875a4.731,4.731,0,0,0,4.729-4.725v-26.183a4.733,4.733,0,0,0-4.729-4.728h-51.156Zm11.579-.326a1.092,1.092,0,0,1-1.061-.84,6.158,6.158,0,0,0-6.018-4.767,1.093,1.093,0,0,1-1.064-.84l-2.9-12.3a1.1,1.1,0,0,1,.209-.929,1.092,1.092,0,0,1,.855-.412,3.305,3.305,0,0,0,2.667-1.161,3.294,3.294,0,0,0,.518-2.862,1.1,1.1,0,0,1,.209-.929,1.091,1.091,0,0,1,.855-.412h30.767a1.092,1.092,0,0,1,1.091,1.09,4.734,4.734,0,0,0,4.729,4.729,1.092,1.092,0,0,1,1.09,1.09v11.637a1.094,1.094,0,0,1-1.09,1.093,4.733,4.733,0,0,0-4.729,4.726,1.092,1.092,0,0,1-1.091,1.091Zm-5.6-19.9a5.208,5.208,0,0,1-3.031,1.848l2.426,10.3a8.326,8.326,0,0,1,7.023,5.562h23.217a6.921,6.921,0,0,1,5.729-5.731v-9.627a6.919,6.919,0,0,1-5.729-5.731h-28.528A5.2,5.2,0,0,1-3263.819-664.53Zm16.4,15.235-.14-.757A4.423,4.423,0,0,1-3251.1-652a1.093,1.093,0,0,1,.318-1.511,1.091,1.091,0,0,1,1.511.32,2.382,2.382,0,0,0,2.425.931,2.525,2.525,0,0,0,1.566-.929,1.891,1.891,0,0,0,.394-1.5,2.071,2.071,0,0,0-.75-1.341,2.524,2.524,0,0,0-1.938-.253,4.594,4.594,0,0,1-3.588-.613,4.122,4.122,0,0,1-1.646-2.736,4.049,4.049,0,0,1,.8-3.221,4.621,4.621,0,0,1,1.873-1.432l-.137-.747a1.091,1.091,0,0,1,.791-1.249c.029-.008.057-.014.089-.021a1.09,1.09,0,0,1,1.266.879l.137.759a4.413,4.413,0,0,1,3.534,1.952,1.091,1.091,0,0,1-.32,1.508,1.088,1.088,0,0,1-1.509-.32,2.381,2.381,0,0,0-2.424-.932,2.479,2.479,0,0,0-1.568.93,1.9,1.9,0,0,0-.392,1.5,2.046,2.046,0,0,0,.75,1.339,2.56,2.56,0,0,0,1.948.252,4.6,4.6,0,0,1,3.585.615,4.141,4.141,0,0,1,1.641,2.737,4.051,4.051,0,0,1-.808,3.221,4.606,4.606,0,0,1-1.86,1.419l.14.76a1.11,1.11,0,0,1-.879,1.268,1.1,1.1,0,0,1-.2.018A1.091,1.091,0,0,1-3247.419-649.3Zm9.124-6.973a1.092,1.092,0,0,1-1.091-1.093,1.091,1.091,0,0,1,1.091-1.09h4.365a1.092,1.092,0,0,1,1.091,1.09,1.093,1.093,0,0,1-1.091,1.093Zm-22.552,0a1.09,1.09,0,0,1-1.091-1.093,1.089,1.089,0,0,1,1.091-1.09h4.361a1.092,1.092,0,0,1,1.093,1.09,1.093,1.093,0,0,1-1.093,1.093Z" transform="translate(3291.5 689.5)" fill="#fff" stroke="rgba(0,0,0,0)" stroke-width="1"/></svg>