<svg xmlns="http://www.w3.org/2000/svg" width="67.181" height="73" viewBox="0 0 67.181 73"><path d="M-2883.492-123.245a1.091,1.091,0,0,1-1.092-1.091v-55.272a1.091,1.091,0,0,1,1.092-1.091h6.181v-6.183a1.092,1.092,0,0,1,1.091-1.09h6.183v-6.183a1.091,1.091,0,0,1,1.091-1.091h49.451a1.093,1.093,0,0,1,1.093,1.091v55.27a1.094,1.094,0,0,1-1.093,1.093h-6.183v6.183a1.09,1.09,0,0,1-1.09,1.09h-6.182v6.183a1.091,1.091,0,0,1-1.092,1.091Zm1.091-2.181h47.269V-166.88h-10.544a1.092,1.092,0,0,1-1.091-1.091v-10.546H-2882.4Zm7.272-55.273h29.452a1.085,1.085,0,0,1,.771.32l11.636,11.636a1.09,1.09,0,0,1,.32.772V-132.7h5.091v-53.089h-47.271Zm7.273-7.273h41.089a1.09,1.09,0,0,1,1.09,1.09v46.907h5.093v-53.088h-47.272Zm23.27,18.909h7.913l-7.913-7.911Zm-31.635,37.092a1.09,1.09,0,0,1-1.09-1.089,1.092,1.092,0,0,1,1.09-1.092h13.092a1.092,1.092,0,0,1,1.09,1.092,1.09,1.09,0,0,1-1.09,1.089Zm25.636-8.726a1.091,1.091,0,0,1-1.09-1.091,1.091,1.091,0,0,1,1.09-1.092h9.275a1.091,1.091,0,0,1,1.091,1.092,1.091,1.091,0,0,1-1.091,1.091Zm-25.636,0a1.091,1.091,0,0,1-1.09-1.091,1.091,1.091,0,0,1,1.09-1.092h18.364a1.091,1.091,0,0,1,1.091,1.092,1.091,1.091,0,0,1-1.091,1.091Zm15.637-8.728a1.091,1.091,0,0,1-1.09-1.093,1.09,1.09,0,0,1,1.09-1.089h19.274a1.09,1.09,0,0,1,1.091,1.089,1.091,1.091,0,0,1-1.091,1.093Zm-15.637,0a1.091,1.091,0,0,1-1.09-1.093,1.09,1.09,0,0,1,1.09-1.089h8.365a1.09,1.09,0,0,1,1.091,1.089,1.09,1.09,0,0,1-1.091,1.093Zm28-8.73a1.091,1.091,0,0,1-1.093-1.089,1.093,1.093,0,0,1,1.093-1.093h6.908a1.092,1.092,0,0,1,1.091,1.093,1.09,1.09,0,0,1-1.091,1.089Zm-28,0a1.09,1.09,0,0,1-1.09-1.089,1.092,1.092,0,0,1,1.09-1.093h20.729a1.092,1.092,0,0,1,1.091,1.093,1.09,1.09,0,0,1-1.091,1.089Zm0-8.726a1.092,1.092,0,0,1-1.09-1.091,1.091,1.091,0,0,1,1.09-1.092h23.273a1.091,1.091,0,0,1,1.091,1.092,1.091,1.091,0,0,1-1.091,1.091Z" transform="translate(2885.084 195.745)" fill="#fff" stroke="rgba(0,0,0,0)" stroke-width="1"/></svg>