<svg xmlns="http://www.w3.org/2000/svg" width="73" height="73.004" viewBox="0 0 73 73.004"><path d="M-4244.256-141.751a1.092,1.092,0,0,1-1.092-1.091V-144.3a1.092,1.092,0,0,1,1.092-1.092,1.092,1.092,0,0,1,1.091,1.092v.363h67.636v-.363a1.092,1.092,0,0,1,1.09-1.092,1.092,1.092,0,0,1,1.091,1.092v1.455a1.091,1.091,0,0,1-1.091,1.091Zm0-7.274a1.091,1.091,0,0,1-1.092-1.091v-1.456a1.09,1.09,0,0,1,1.092-1.089,1.09,1.09,0,0,1,1.091,1.089v.367h67.636v-.367a1.09,1.09,0,0,1,1.09-1.089,1.09,1.09,0,0,1,1.091,1.089v1.456a1.091,1.091,0,0,1-1.091,1.091Zm0-7.274a1.091,1.091,0,0,1-1.092-1.091v-1.453a1.092,1.092,0,0,1,1.092-1.092,1.092,1.092,0,0,1,1.091,1.092v.363h67.636v-.363a1.092,1.092,0,0,1,1.09-1.092,1.092,1.092,0,0,1,1.091,1.092v1.453a1.091,1.091,0,0,1-1.091,1.091Zm0-7.273a1.092,1.092,0,0,1-1.092-1.091v-1.456a1.093,1.093,0,0,1,1.092-1.092,1.094,1.094,0,0,1,1.091,1.092v.364h67.636v-.364a1.093,1.093,0,0,1,1.09-1.092,1.093,1.093,0,0,1,1.091,1.092v1.456a1.091,1.091,0,0,1-1.091,1.091Zm0-7.274a1.092,1.092,0,0,1-1.092-1.092v-40.727a1.091,1.091,0,0,1,1.092-1.091h69.817a1.091,1.091,0,0,1,1.091,1.091v40.727a1.092,1.092,0,0,1-1.091,1.092Zm1.091-2.183h67.636v-38.546h-67.636Zm9.818-4.363a1.091,1.091,0,0,1-1.091-1.091,3.278,3.278,0,0,0-3.273-3.273,1.092,1.092,0,0,1-1.091-1.09v-18.911a1.091,1.091,0,0,1,1.091-1.089,3.278,3.278,0,0,0,3.273-3.273,1.091,1.091,0,0,1,1.091-1.092h48a1.092,1.092,0,0,1,1.09,1.092,3.279,3.279,0,0,0,3.273,3.273,1.09,1.09,0,0,1,1.091,1.089v18.911a1.091,1.091,0,0,1-1.091,1.09,3.279,3.279,0,0,0-3.273,3.273,1.092,1.092,0,0,1-1.09,1.091Zm-3.273-23.383v16.946a5.479,5.479,0,0,1,4.255,4.256h46.037a5.473,5.473,0,0,1,4.252-4.256v-16.946a5.467,5.467,0,0,1-4.252-4.254h-46.037A5.473,5.473,0,0,1-4236.62-200.774Zm26.175,17.929v-1.07a5.041,5.041,0,0,1-3.713-2.93,1.1,1.1,0,0,1,.584-1.431,1.091,1.091,0,0,1,1.428.584,3.01,3.01,0,0,0,2.806,1.715,2.825,2.825,0,0,0,2.99-2.616c0-1.738-1.011-2.618-3-2.618-3.812,0-5.172-2.478-5.172-4.8a4.9,4.9,0,0,1,4.081-4.686v-1.062a1.09,1.09,0,0,1,1.091-1.089,1.09,1.09,0,0,1,1.091,1.089v1.069a5.037,5.037,0,0,1,3.728,2.932,1.092,1.092,0,0,1-.583,1.429,1.089,1.089,0,0,1-1.428-.581,3.015,3.015,0,0,0-2.808-1.717,2.825,2.825,0,0,0-2.99,2.617c0,1.736,1.006,2.617,2.99,2.617,3.823,0,5.185,2.479,5.185,4.8a4.9,4.9,0,0,1-4.094,4.689v1.058a1.091,1.091,0,0,1-1.091,1.09A1.091,1.091,0,0,1-4210.445-182.845Zm11.639-9.456a4.733,4.733,0,0,1,4.726-4.727,4.733,4.733,0,0,1,4.727,4.727,4.731,4.731,0,0,1-4.727,4.727A4.731,4.731,0,0,1-4198.807-192.3Zm2.181,0a2.55,2.55,0,0,0,2.545,2.546,2.549,2.549,0,0,0,2.545-2.546,2.546,2.546,0,0,0-2.545-2.543A2.547,2.547,0,0,0-4196.625-192.3Zm-32.73,0a4.734,4.734,0,0,1,4.726-4.727,4.734,4.734,0,0,1,4.729,4.727,4.732,4.732,0,0,1-4.729,4.727A4.732,4.732,0,0,1-4229.356-192.3Zm2.183,0a2.548,2.548,0,0,0,2.543,2.546,2.55,2.55,0,0,0,2.546-2.546,2.547,2.547,0,0,0-2.546-2.543A2.546,2.546,0,0,0-4227.173-192.3Z" transform="translate(4245.849 214.254)" fill="#fff" stroke="rgba(0,0,0,0)" stroke-width="1"/></svg>