<svg xmlns="http://www.w3.org/2000/svg" width="73" height="72.997" viewBox="0 0 73 72.997"><path d="M-3062.7-267.059v-6.475h-6.667v6.475a1.089,1.089,0,0,1-1.09,1.089,1.089,1.089,0,0,1-1.091-1.089v-6.475h-1.168a1.092,1.092,0,0,1-1.091-1.093,1.091,1.091,0,0,1,1.091-1.09h10.016V-291.08a1.093,1.093,0,0,1,1.093-1.09,1.092,1.092,0,0,1,1.09,1.09v24.021a1.089,1.089,0,0,1-1.09,1.089A1.09,1.09,0,0,1-3062.7-267.059Zm-22.838,1.089a3.884,3.884,0,0,1-3.184-1.626,3.886,3.886,0,0,1-.548-3.533l3.858-11.7a4.391,4.391,0,0,1,4.114-3.015l4.852-.059a1.658,1.658,0,0,0,1.628-1.632l.144-9.307-6.069,2.59a3.425,3.425,0,0,1-3.3-.328l-7.164-4.957a3.452,3.452,0,0,1-1.451-2.3,3.458,3.458,0,0,1,.679-2.642,3.457,3.457,0,0,1,4.638-.756l4.743,3.245a1.272,1.272,0,0,0,1.188.108l6.547-2.781a5.27,5.27,0,0,1,2.563-.4l4.41.413a4.122,4.122,0,0,1,3.732,4.224l-.639,16.907a6.1,6.1,0,0,1-6.217,5.877l-6.547-.159a1.214,1.214,0,0,0-1.24.913l-2.3,8.114a3.868,3.868,0,0,1-3.709,2.8Zm12.587-33.433a1.084,1.084,0,0,1,.483.923l-.168,10.984a3.807,3.807,0,0,1-3.784,3.781l-4.849.059a2.209,2.209,0,0,0-2.07,1.516l-3.859,11.7a1.734,1.734,0,0,0,.243,1.57,1.732,1.732,0,0,0,1.417.723h.729a1.679,1.679,0,0,0,1.609-1.218l2.3-8.113a3.472,3.472,0,0,1,3.389-2.5l6.548.162a3.87,3.87,0,0,0,3.984-3.771l.638-16.909a1.938,1.938,0,0,0-1.753-1.978l-4.408-.412a3.144,3.144,0,0,0-1.508.234l-6.549,2.781a3.438,3.438,0,0,1-3.261-.308l-4.745-3.244a1.267,1.267,0,0,0-1.692.285,1.255,1.255,0,0,0-.249.968,1.257,1.257,0,0,0,.535.845l7.165,4.957a1.245,1.245,0,0,0,1.2.117l7.614-3.249a1.09,1.09,0,0,1,.427-.088A1.086,1.086,0,0,1-3072.955-299.4Zm-24.657,32.344v-21.475h-16.364a1.091,1.091,0,0,1-1.09-1.089,1.092,1.092,0,0,1,1.09-1.094h34.909a1.091,1.091,0,0,1,1.091,1.094,1.091,1.091,0,0,1-1.091,1.089h-16.363v21.475a1.09,1.09,0,0,1-1.093,1.089A1.089,1.089,0,0,1-3097.612-267.059Zm-10.617,1.089a3.869,3.869,0,0,1-3.709-2.8l-2.3-8.114a1.26,1.26,0,0,0-1.237-.913l-6.548.159a6.069,6.069,0,0,1-6.217-5.883l-.639-16.9a4.123,4.123,0,0,1,3.731-4.229l4.412-.413a5.254,5.254,0,0,1,2.561.4l7.819,3.328a1.242,1.242,0,0,0,.855.04l6.8-2.12a3.463,3.463,0,0,1,4.225,2.086,3.458,3.458,0,0,1-.13,2.723,3.468,3.468,0,0,1-2.07,1.777l-7.447,2.352a3.88,3.88,0,0,1-2.365-.006l-7.875-2.516.146,9.465a1.64,1.64,0,0,0,1.629,1.634l4.849.059a4.394,4.394,0,0,1,4.116,3.015l3.858,11.7a3.882,3.882,0,0,1-.547,3.533,3.884,3.884,0,0,1-3.185,1.626Zm-7.217-14.01a3.437,3.437,0,0,1,3.306,2.5l2.3,8.113a1.68,1.68,0,0,0,1.609,1.218h.729a1.729,1.729,0,0,0,1.417-.723,1.729,1.729,0,0,0,.244-1.57l-3.859-11.7a2.209,2.209,0,0,0-2.07-1.516l-4.849-.059a3.808,3.808,0,0,1-3.783-3.787l-.17-10.978a1.092,1.092,0,0,1,.441-.893,1.082,1.082,0,0,1,.983-.165l9.321,2.981a1.7,1.7,0,0,0,1.044,0l7.451-2.353a1.26,1.26,0,0,0,.763-.65,1.256,1.256,0,0,0,.048-1,1.271,1.271,0,0,0-1.544-.765l-6.788,2.118a3.425,3.425,0,0,1-2.36-.117l-7.817-3.328a3.141,3.141,0,0,0-1.5-.234l-4.413.412a1.941,1.941,0,0,0-1.753,1.987l.639,16.891a3.87,3.87,0,0,0,3.983,3.78l6.547-.162Zm-8.225,12.921v-6.475h-6.667v6.475a1.089,1.089,0,0,1-1.09,1.089,1.09,1.09,0,0,1-1.093-1.089V-291.08a1.093,1.093,0,0,1,1.093-1.09,1.092,1.092,0,0,1,1.09,1.09v15.363h10.017a1.092,1.092,0,0,1,1.091,1.09,1.093,1.093,0,0,1-1.091,1.093h-1.168v6.475a1.088,1.088,0,0,1-1.091,1.089A1.09,1.09,0,0,1-3123.671-267.059Zm26.385-39.583-5.591-5.505h-5.463a1.091,1.091,0,0,1-1.092-1.089v-23.639a1.09,1.09,0,0,1,1.092-1.09h20.73a1.09,1.09,0,0,1,1.092,1.09,1.089,1.089,0,0,1-1.092,1.089h-19.639v21.457h4.819a1.1,1.1,0,0,1,.766.314l5.143,5.065,5.145-5.065a1.1,1.1,0,0,1,.765-.314h4.82v-6.7a1.091,1.091,0,0,1,1.091-1.089,1.091,1.091,0,0,1,1.092,1.089v7.793a1.091,1.091,0,0,1-1.092,1.089h-5.463l-5.591,5.505a1.076,1.076,0,0,1-.767.313A1.076,1.076,0,0,1-3097.286-306.642Zm23.622-1.217a5.611,5.611,0,0,1-1.789-4.933,5.554,5.554,0,0,1,4.154-4.608,5.6,5.6,0,0,1,5.09,1.266,5.6,5.6,0,0,1,1.788,4.93,5.553,5.553,0,0,1-4.152,4.611,5.793,5.793,0,0,1-1.354.162A5.564,5.564,0,0,1-3073.664-307.859Zm2.882-7.423a3.4,3.4,0,0,0-2.508,2.787,3.378,3.378,0,0,0,1.087,3.016,3.393,3.393,0,0,0,3.113.765,3.4,3.4,0,0,0,2.507-2.782,3.384,3.384,0,0,0-1.085-3.018,3.347,3.347,0,0,0-2.263-.87A3.555,3.555,0,0,0-3070.782-315.282Zm-53.687,8.69a5.551,5.551,0,0,1-4.153-4.611,5.61,5.61,0,0,1,1.787-4.931,5.605,5.605,0,0,1,5.093-1.265,5.553,5.553,0,0,1,4.153,4.608,5.605,5.605,0,0,1-1.789,4.933,5.574,5.574,0,0,1-3.738,1.428A5.781,5.781,0,0,1-3124.469-306.592Zm-.9-7.922a3.388,3.388,0,0,0-1.086,3.019,3.4,3.4,0,0,0,2.508,2.782,3.4,3.4,0,0,0,3.114-.765,3.382,3.382,0,0,0,1.085-3.016,3.4,3.4,0,0,0-2.507-2.787,3.564,3.564,0,0,0-.852-.1A3.344,3.344,0,0,0-3125.373-314.514Zm28.194-3.392-5.94-5.942a1.089,1.089,0,0,1,0-1.541,1.088,1.088,0,0,1,1.543,0l5.169,5.168,17.427-17.425a1.089,1.089,0,0,1,1.543,0,1.09,1.09,0,0,1,0,1.54l-18.2,18.2a1.086,1.086,0,0,1-.771.319A1.085,1.085,0,0,1-3097.179-317.906Z" transform="translate(3133.021 338.466)" fill="#fff" stroke="rgba(0,0,0,0)" stroke-width="1"/></svg>