<svg xmlns="http://www.w3.org/2000/svg" width="73" height="73" viewBox="0 0 73 73"><path d="M-4240.268-448.618a1.09,1.09,0,0,1-1.09-1.09,1.091,1.091,0,0,1,1.09-1.091h7.638v-6.545h-16.364a5.462,5.462,0,0,1-5.456-5.454v-52.365a5.463,5.463,0,0,1,5.456-5.455h61.091a5.462,5.462,0,0,1,5.453,5.455V-462.8a5.461,5.461,0,0,1-5.453,5.454h-16.365v6.545h7.636a1.09,1.09,0,0,1,1.091,1.091,1.09,1.09,0,0,1-1.091,1.09Zm9.818-2.181h24v-6.545h-24Zm-21.817-12a3.277,3.277,0,0,0,3.272,3.273h61.091a3.277,3.277,0,0,0,3.271-3.273v-3.275h-67.635Zm42-30.161a1.092,1.092,0,0,1,1.092,1.092v23.614h24.541v-46.91a3.276,3.276,0,0,0-3.271-3.273h-61.091a3.276,3.276,0,0,0-3.272,3.273v30.44l5.3-1.065a4.355,4.355,0,0,1,4.338-4.124,4.329,4.329,0,0,1,2.957,1.172l7.461-4.78a4.34,4.34,0,0,1-.234-1.346,4.368,4.368,0,0,1,4.363-4.366,4.341,4.341,0,0,1,3.354,1.606l6.908-3.206a4.315,4.315,0,0,1-.08-.784,4.369,4.369,0,0,1,4.365-4.364,4.369,4.369,0,0,1,4.364,4.364,4.369,4.369,0,0,1-4.364,4.363,4.34,4.34,0,0,1-3.354-1.6l-6.908,3.205a4.429,4.429,0,0,1,.079.787,4.368,4.368,0,0,1-4.364,4.362,4.334,4.334,0,0,1-2.957-1.174l-7.462,4.779a4.28,4.28,0,0,1,.235,1.35,4.368,4.368,0,0,1-4.363,4.365,4.353,4.353,0,0,1-3.909-2.464l-5.729,1.152v14.243h5.273v-8.478a1.091,1.091,0,0,1,1.092-1.09h6.544a1.09,1.09,0,0,1,1.09,1.09v8.478h5.821v-17.2a1.09,1.09,0,0,1,1.09-1.091h6.545a1.092,1.092,0,0,1,1.091,1.091v17.2h5.818v-23.614a1.093,1.093,0,0,1,1.092-1.092Zm-5.452,24.706h4.362v-22.524h-4.362Zm-14.549,0h4.364v-16.112h-4.364Zm-14.545,0h4.364v-7.387h-4.364Zm0-17.3a2.184,2.184,0,0,0,2.181,2.182,2.185,2.185,0,0,0,2.183-2.182,2.184,2.184,0,0,0-2.183-2.181A2.183,2.183,0,0,0-4244.811-485.55Zm14.545-9.316a2.185,2.185,0,0,0,2.183,2.18,2.184,2.184,0,0,0,2.181-2.18,2.183,2.183,0,0,0-2.181-2.182A2.184,2.184,0,0,0-4230.266-494.866Zm14.549-6.75a2.185,2.185,0,0,0,2.18,2.182,2.185,2.185,0,0,0,2.182-2.182,2.184,2.184,0,0,0-2.182-2.182A2.183,2.183,0,0,0-4215.717-501.616Zm11.541,25.38a1.092,1.092,0,0,1-1.091-1.092,1.091,1.091,0,0,1,1.091-1.09h10.182a1.093,1.093,0,0,1,1.092,1.09,1.094,1.094,0,0,1-1.092,1.092Zm0-7.275a1.09,1.09,0,0,1-1.091-1.089,1.09,1.09,0,0,1,1.091-1.091h14.546a1.089,1.089,0,0,1,1.09,1.091,1.089,1.089,0,0,1-1.09,1.089Zm6.107-6.907v-1.368a5.663,5.663,0,0,1-4.313-3.314,1.094,1.094,0,0,1,.582-1.431,1.09,1.09,0,0,1,1.43.584,3.649,3.649,0,0,0,3.394,2.083,3.427,3.427,0,0,0,3.617-3.186c0-1.455-.627-3.187-3.617-3.187-4.288,0-5.815-2.774-5.815-5.368a5.5,5.5,0,0,1,4.723-5.268v-1.363a1.092,1.092,0,0,1,1.092-1.092,1.09,1.09,0,0,1,1.089,1.092v1.371a5.667,5.667,0,0,1,4.3,3.309,1.092,1.092,0,0,1-.582,1.43,1.093,1.093,0,0,1-1.429-.584,3.65,3.65,0,0,0-3.4-2.082,3.427,3.427,0,0,0-3.616,3.188c0,1.452.632,3.187,3.634,3.187,4.274,0,5.8,2.772,5.8,5.368a5.5,5.5,0,0,1-4.709,5.265v1.367a1.09,1.09,0,0,1-1.089,1.089A1.091,1.091,0,0,1-4198.068-490.418Zm-49.47-6.181a1.093,1.093,0,0,1-1.092-1.092,1.093,1.093,0,0,1,1.092-1.092h10.545a1.094,1.094,0,0,1,1.091,1.092,1.094,1.094,0,0,1-1.091,1.092Zm7.454-7.274a1.091,1.091,0,0,1-1.091-1.091,1.092,1.092,0,0,1,1.091-1.089h16.909a1.092,1.092,0,0,1,1.091,1.089,1.091,1.091,0,0,1-1.091,1.091Zm-7.454,0a1.091,1.091,0,0,1-1.092-1.091,1.091,1.091,0,0,1,1.092-1.089h1.318a1.09,1.09,0,0,1,1.089,1.089,1.089,1.089,0,0,1-1.089,1.091Zm21.365-7.273a1.09,1.09,0,0,1-1.092-1.089,1.091,1.091,0,0,1,1.092-1.091h15.908a1.091,1.091,0,0,1,1.092,1.091,1.09,1.09,0,0,1-1.092,1.089Zm-13.912,0a1.09,1.09,0,0,1-1.091-1.089,1.091,1.091,0,0,1,1.091-1.091h8.092a1.09,1.09,0,0,1,1.09,1.091,1.09,1.09,0,0,1-1.09,1.089Zm-7.454,0a1.09,1.09,0,0,1-1.092-1.089,1.091,1.091,0,0,1,1.092-1.091h1.318a1.089,1.089,0,0,1,1.089,1.091,1.089,1.089,0,0,1-1.089,1.089Z" transform="translate(4254.951 521.118)" fill="#fff" stroke="rgba(0,0,0,0)" stroke-width="1"/></svg>