<svg xmlns="http://www.w3.org/2000/svg" width="73" height="73.043" viewBox="0 0 73 73.043"><path d="M-4495.916-414.341a1.6,1.6,0,0,1-.5-1.156,13.968,13.968,0,0,1,1.616-6.806,15.469,15.469,0,0,0,2.228-8.032c-.226-23.374,12.94-35.738,16.058-38.335l-3.692-10.615a3.967,3.967,0,0,1,1-4.194,3.978,3.978,0,0,1,4.229-.868l5.218,1.992a6.226,6.226,0,0,0,4.446,0l5.218-1.992a3.977,3.977,0,0,1,4.23.868,3.965,3.965,0,0,1,1,4.194l-3.693,10.62a36.281,36.281,0,0,1,3.9,3.891,1.089,1.089,0,0,1-.1,1.539,1.093,1.093,0,0,1-1.54-.107,35.6,35.6,0,0,0-3.445-3.464,11.421,11.421,0,0,1-7.789,2.726,11.428,11.428,0,0,1-7.789-2.724c-3.163,2.765-15.273,14.779-15.063,36.448a17.654,17.654,0,0,1-2.535,9.166,11.584,11.584,0,0,0-1.306,5.4c2,1.117,14.011,1.014,19.879.966l2.714-.021a1.126,1.126,0,0,1,1.1,1.087,1.094,1.094,0,0,1-1.087,1.1l-2.707.02q-2.776.022-5.17.024C-4489.427-412.62-4494.539-412.974-4495.916-414.341Zm26.014-60.42,1.022,8.416a11.564,11.564,0,0,0,1.337.086,11.53,11.53,0,0,0,1.335-.086l1.023-8.416a1.1,1.1,0,0,1,1.214-.95,1.09,1.09,0,0,1,.953,1.214l-.931,7.644a7.154,7.154,0,0,0,3.141-2.013l3.873-11.134a1.79,1.79,0,0,0-.456-1.914,1.794,1.794,0,0,0-1.935-.4l-5.218,1.992a8.407,8.407,0,0,1-6,0l-5.218-1.992a1.8,1.8,0,0,0-1.935.4,1.789,1.789,0,0,0-.456,1.914l3.875,11.134a7.123,7.123,0,0,0,3.137,2.013l-.93-7.644a1.091,1.091,0,0,1,.952-1.214,1.142,1.142,0,0,1,.118-.006A1.1,1.1,0,0,1-4469.9-474.76Zm3.217,62.1a1.092,1.092,0,0,1-1.093-1.09,1.092,1.092,0,0,1,1.093-1.092h1.592v-1.7a5.459,5.459,0,0,1,5.457-5.45h.6c1.151-1.04,6.155-6.316,6.441-18.82h-1.564a1.089,1.089,0,0,1-1.089-1.09,1.09,1.09,0,0,1,1.089-1.089h1.595v-4.978h-1.595a1.09,1.09,0,0,1-1.089-1.09,1.09,1.09,0,0,1,1.089-1.09h2.066l-3.1-9.3a1.1,1.1,0,0,1,.149-.981,1.1,1.1,0,0,1,.886-.455h6.966v-4.277a1.09,1.09,0,0,1,1.089-1.09,1.091,1.091,0,0,1,1.091,1.09v4.277h6.966a1.087,1.087,0,0,1,.883.455,1.093,1.093,0,0,1,.151.981l-3.1,9.3h2.065a1.09,1.09,0,0,1,1.089,1.09,1.09,1.09,0,0,1-1.089,1.09h-1.595V-443h1.595a1.089,1.089,0,0,1,1.089,1.089,1.089,1.089,0,0,1-1.089,1.09h-1.564c.284,12.582,5.275,17.786,6.434,18.82h.612a5.46,5.46,0,0,1,5.455,5.45v1.7h1.593a1.093,1.093,0,0,1,1.092,1.092,1.093,1.093,0,0,1-1.092,1.09Zm3.773-3.886v1.7h33.622v-1.7a3.278,3.278,0,0,0-3.272-3.271h-27.075A3.279,3.279,0,0,0-4462.911-416.55Zm6.861-5.45h19.9c-2.18-2.716-5.443-8.479-5.66-18.82h-8.582C-4450.606-430.48-4453.871-424.717-4456.05-422Zm5.672-21.008h8.558v-4.969h-8.558Zm.589-7.149h7.379l2.853-8.553h-13.083Zm-18.836,20.415v-1.365a5.667,5.667,0,0,1-4.314-3.313,1.089,1.089,0,0,1,.583-1.429,1.089,1.089,0,0,1,1.428.581,3.646,3.646,0,0,0,3.393,2.083,3.425,3.425,0,0,0,3.618-3.184c0-1.453-.628-3.185-3.618-3.185-4.287,0-5.815-2.774-5.815-5.367a5.5,5.5,0,0,1,4.725-5.264v-1.362a1.091,1.091,0,0,1,1.09-1.091,1.091,1.091,0,0,1,1.09,1.091v1.371a5.65,5.65,0,0,1,4.3,3.306,1.087,1.087,0,0,1-.583,1.429,1.089,1.089,0,0,1-1.427-.583,3.645,3.645,0,0,0-3.394-2.081,3.426,3.426,0,0,0-3.615,3.184c0,1.452.629,3.186,3.632,3.186,4.274,0,5.8,2.77,5.8,5.366a5.5,5.5,0,0,1-4.709,5.263v1.364a1.091,1.091,0,0,1-1.09,1.089A1.09,1.09,0,0,1-4468.625-429.743Z" transform="translate(4496.92 485.163)" fill="#fff" stroke="rgba(0,0,0,0)" stroke-width="1"/></svg>