<svg xmlns="http://www.w3.org/2000/svg" width="73" height="73" viewBox="0 0 73 73"><path d="M-3385.3-509.618a1.092,1.092,0,0,1-1.091-1.093v-4.363a4,4,0,0,1,4-4h1.818v-3.273a4.007,4.007,0,0,1,4-4h20.365a4.006,4.006,0,0,1,4,4v3.273h1.818a4,4,0,0,1,4,4v3.273h30.909a1.09,1.09,0,0,1,1.091,1.09,1.092,1.092,0,0,1-1.091,1.093Zm1.092-5.456v3.273h35.635v-3.273a1.82,1.82,0,0,0-1.818-1.818h-32A1.82,1.82,0,0,0-3384.212-515.074Zm5.817-7.272v3.273h24v-3.273a1.818,1.818,0,0,0-1.816-1.818h-20.365A1.82,1.82,0,0,0-3378.395-522.346Zm36.861,3.049-5.143-5.144a1.088,1.088,0,0,1,0-1.54,1.086,1.086,0,0,1,1.543,0l5.144,5.14a1.093,1.093,0,0,1,0,1.544,1.093,1.093,0,0,1-.772.321A1.089,1.089,0,0,1-3341.534-519.3Zm-2.563-9.541a1.091,1.091,0,0,1-1.091-1.089,1.091,1.091,0,0,1,1.091-1.093h6.67a1.091,1.091,0,0,1,1.091,1.093,1.091,1.091,0,0,1-1.091,1.089Zm-2.58-5.035a1.092,1.092,0,0,1,0-1.544l5.143-5.143a1.093,1.093,0,0,1,1.544,0,1.092,1.092,0,0,1,0,1.543l-5.144,5.143a1.091,1.091,0,0,1-.771.32A1.1,1.1,0,0,1-3346.677-533.873Zm-32.806-1.928a2.549,2.549,0,0,1-2.546-2.547v-4.362a2.549,2.549,0,0,1,2.546-2.545h3.272v-26.908h-3.272a2.549,2.549,0,0,1-2.546-2.547v-4.362a2.549,2.549,0,0,1,2.546-2.545h26.18a2.549,2.549,0,0,1,2.546,2.545v4.362a2.55,2.55,0,0,1-2.546,2.547h-3.272v4.363h6.181a1.091,1.091,0,0,1,1.092,1.091v2.547h30.908a4,4,0,0,1,4,4v2.909a4,4,0,0,1-4,4H-3349.3v2.545a1.091,1.091,0,0,1-1.092,1.093h-6.181v4.363h3.272a2.549,2.549,0,0,1,2.546,2.545v4.362a2.55,2.55,0,0,1-2.546,2.547Zm-.364-6.909v4.362a.366.366,0,0,0,.364.366h26.18a.365.365,0,0,0,.365-.366v-4.362a.364.364,0,0,0-.365-.363h-26.18A.365.365,0,0,0-3379.847-542.71Zm5.817-2.545h15.274v-26.908h-9.455v22.181a1.091,1.091,0,0,1-1.092,1.091,1.091,1.091,0,0,1-1.09-1.091v-22.181h-3.637Zm17.455-6.545h5.091v-13.819h-5.091Zm7.273-3.636h30.908a1.822,1.822,0,0,0,1.82-1.819v-2.909a1.822,1.822,0,0,0-1.82-1.818H-3349.3Zm-30.544-23.637v4.362a.364.364,0,0,0,.364.363h26.18a.363.363,0,0,0,.365-.363v-4.362a.363.363,0,0,0-.365-.363h-26.18A.364.364,0,0,0-3379.847-579.073Z" transform="translate(3386.894 582.118)" fill="#fff" stroke="rgba(0,0,0,0)" stroke-width="1"/></svg>