<svg xmlns="http://www.w3.org/2000/svg" width="808.916" height="349.1" viewBox="0 0 808.916 349.1"><path d="M-378.42-337.96c-11.9,0-16.66,4.284-16.66,16.184V-16.184C-395.08-4.284-390.32,0-378.42,0h134.708c64.26,0,107.1-34.272,107.1-92.82,0-43.316-16.184-70.924-48.552-82.348v-1.9c24.276-14.28,36.176-38.08,36.176-71.876,0-57.12-36.176-89.012-97.58-89.012ZM-335.1-198.492v-83.776h81.4c29.036,0,43.792,13.8,43.792,41.888s-14.756,41.888-43.792,41.888ZM-199.92-99.484c0,29.036-15.232,43.792-45.22,43.792H-335.1v-88.536h89.964C-215.152-144.228-199.92-129.472-199.92-99.484Zm84.728-167.076c-3.808,9.52-.476,16.184,10.472,20.468l25.7,9.52c11.424,3.808,15.708,1.428,20.944-10.472C-45.7-275.128-23.8-289.408,7.616-289.408c32.368,0,55.216,23.324,55.216,53.312,0,20.468-8.568,36.652-25.228,49.5-10,7.616-30.464,17.612-61.4,29.512-29.036,11.424-43.316,18.564-63.784,34.748s-29.988,39.508-29.988,70.448v35.7c0,11.9,4.284,16.184,16.184,16.184H103.768c11.9,0,16.184-4.284,16.184-16.184V-39.508c0-11.9-4.284-16.184-16.184-16.184H-55.216V-64.26c0-9.044,5.236-17.612,13.8-22.372,5.236-3.332,5.712-4.76,13.328-7.616,3.332-1.428,5.712-2.38,6.664-2.856,1.9-.952,12.852-4.76,14.28-5.236,50.456-19.992,85.2-39.032,104.244-57.6s28.56-44.744,28.56-79.016c0-29.036-10.472-54.264-31.416-75.208C72.828-334.628,44.744-345.1,10-345.1-51.884-345.1-93.772-318.92-115.192-266.56Zm283.22-71.4c-11.9,0-16.66,4.284-16.66,16.184V-16.184c0,11.9,4.76,16.184,16.66,16.184H302.736c64.26,0,107.1-34.272,107.1-92.82,0-43.316-16.184-70.924-48.552-82.348v-1.9c24.276-14.28,36.176-38.08,36.176-71.876,0-57.12-36.176-89.012-97.58-89.012Zm43.316,139.468v-83.776h81.4c29.036,0,43.792,13.8,43.792,41.888s-14.756,41.888-43.792,41.888ZM346.528-99.484c0,29.036-15.232,43.792-45.22,43.792H211.344v-88.536h89.964C331.3-144.228,346.528-129.472,346.528-99.484Z" transform="translate(397.08 347.1)" fill="none" stroke="#fff" stroke-width="4"/></svg>