<?xml version="1.0" encoding="UTF-8"?>
<svg width="54px" height="48px" viewBox="0 0 54 48" version="1.1" xmlns="http://www.w3.org/2000/svg" xmlns:xlink="http://www.w3.org/1999/xlink">
    <!-- Generator: Sketch 55.2 (78181) - https://sketchapp.com -->
    <title>icon_eprocurement</title>
    <desc>Created with Sketch.</desc>
    <g id="Page-1" stroke="none" stroke-width="1" fill="none" fill-rule="evenodd">
        <path d="M23.1428571,7.71428571 L23.1428571,6 C23.1428571,5.52661307 23.5266131,5.14285714 24,5.14285714 C24.4733869,5.14285714 24.8571429,4.75910121 24.8571429,4.28571429 C24.8571429,3.81232736 25.2408988,3.42857143 25.7142857,3.42857143 L48,3.42857143 C48.4733869,3.42857143 48.8571429,3.81232736 48.8571429,4.28571429 C48.8571429,4.75910121 49.2408988,5.14285714 49.7142857,5.14285714 C50.1876726,5.14285714 50.5714286,5.52661307 50.5714286,6 L50.5714286,12.8571429 C50.5714286,13.3305298 50.1876726,13.7142857 49.7142857,13.7142857 C49.2408988,13.7142857 48.8571429,14.0980416 48.8571429,14.5714286 C48.8571429,15.0448155 48.4733869,15.4285714 48,15.4285714 L40.4880913,15.4285714 C40.1621217,15.7927734 39.7338726,16.0635148 39.2484949,16.1956449 C39.3647027,16.4887784 39.4285714,16.8083591 39.4285714,17.1428571 L52.2857143,17.1428571 L52.2857143,1.71428571 L21.4285714,1.71428571 L21.4285714,7.71428571 L23.1428571,7.71428571 Z M24.8571429,7.71428571 L36.8571429,7.71428571 C38.2773036,7.71428571 39.4285714,8.8655535 39.4285714,10.2857143 C39.4285714,10.6202123 39.3647027,10.939793 39.2484949,11.2329266 C40.3401705,11.5301037 41.1428571,12.5284559 41.1428571,13.7142857 L47.2894286,13.7142857 C47.55023,12.9829126 48.1257697,12.4073729 48.8571429,12.1465714 L48.8571429,6.71057143 C48.1257697,6.44976997 47.55023,5.87423026 47.2894286,5.14285714 L26.4248571,5.14285714 C26.1640557,5.87423026 25.588516,6.44976997 24.8571429,6.71057143 L24.8571429,7.71428571 Z M19.7142857,4.28571429 L19.7142857,0.857142857 C19.7142857,0.383755929 20.0980416,1.77635684e-15 20.5714286,1.77635684e-15 L53.1428571,1.77635684e-15 C53.6162441,1.77635684e-15 54,0.383755929 54,0.857142857 L54,18 C54,18.4733869 53.6162441,18.8571429 53.1428571,18.8571429 L38.7738056,18.8571429 C38.447836,19.2213448 38.0195869,19.4920863 37.5342092,19.6242163 C37.650417,19.9173498 37.7142857,20.2369305 37.7142857,20.5714286 C37.7142857,21.9915894 36.5630179,23.1428571 35.1428571,23.1428571 L17.1428571,23.1428571 C16.9155473,23.1428571 16.6975652,23.0524709 16.5368571,22.8917143 L14.5714286,20.9262857 L14.5714286,22.2857143 C14.5714286,22.7591012 14.1876726,23.1428571 13.7142857,23.1428571 L5.14285714,23.1428571 C4.66947021,23.1428571 4.28571429,22.7591012 4.28571429,22.2857143 L4.28571429,21.4285714 L-1.77635684e-15,21.4285714 L-1.77635684e-15,19.7142857 L4.28571429,19.7142857 L4.28571429,11.1428571 L6,11.1428571 L6,21.4285714 L12.8571429,21.4285714 L12.8571429,6 L10.2857143,6 L10.2857143,19.7142857 L8.57142857,19.7142857 L8.57142857,6 L6,6 L6,9.42857143 L4.28571429,9.42857143 L4.28571429,7.71428571 L-1.77635684e-15,7.71428571 L-1.77635684e-15,6 L4.28571429,6 L4.28571429,5.14285714 C4.28571429,4.66947021 4.66947021,4.28571429 5.14285714,4.28571429 L13.7142857,4.28571429 C14.1876726,4.28571429 14.5714286,4.66947021 14.5714286,5.14285714 L14.5714286,6.50228571 L16.5368571,4.53685714 C16.6975652,4.37610054 16.9155473,4.28571429 17.1428571,4.28571429 L19.7142857,4.28571429 Z M19.7142857,6 L17.4977143,6 L14.5714286,8.92628571 L14.5714286,18.5022857 L17.4977143,21.4285714 L35.1428571,21.4285714 C35.6162441,21.4285714 36,21.0448155 36,20.5714286 C36,20.0980416 35.6162441,19.7142857 35.1428571,19.7142857 L27.4285714,19.7142857 L27.4285714,18 L29.1428571,18 L36.8571429,18 C37.3305298,18 37.7142857,17.6162441 37.7142857,17.1428571 C37.7142857,16.6694702 37.3305298,16.2857143 36.8571429,16.2857143 L27.4285714,16.2857143 L27.4285714,14.5714286 L30.8571429,14.5714286 L38.5714286,14.5714286 C39.0448155,14.5714286 39.4285714,14.1876726 39.4285714,13.7142857 C39.4285714,13.2408988 39.0448155,12.8571429 38.5714286,12.8571429 L30.8571429,12.8571429 L27.4285714,12.8571429 L27.4285714,11.1428571 L36.8571429,11.1428571 C37.3305298,11.1428571 37.7142857,10.7591012 37.7142857,10.2857143 C37.7142857,9.81232736 37.3305298,9.42857143 36.8571429,9.42857143 L18.8571429,9.42857143 L18.8571429,7.71428571 L19.7142857,7.71428571 L19.7142857,6 Z M42.8571429,30.8571429 L40.2857143,30.8571429 L40.2857143,46.2857143 L47.1428571,46.2857143 L47.1428571,36 L48.8571429,36 L48.8571429,44.5714286 L53.1428571,44.5714286 L53.1428571,46.2857143 L48.8571429,46.2857143 L48.8571429,47.1428571 C48.8571429,47.6162441 48.4733869,48 48,48 L39.4285714,48 C38.9551845,48 38.5714286,47.6162441 38.5714286,47.1428571 L38.5714286,45.7834286 L36.606,47.7488571 C36.4452919,47.9096137 36.2273098,48 36,48 L18,48 C16.5798392,48 15.4285714,46.8487322 15.4285714,45.4285714 C15.4285714,45.0940734 15.4924402,44.7744927 15.6086479,44.4813591 C14.7936539,44.2595006 14.1397255,43.6468478 13.8606049,42.8571429 L6.85714286,42.8571429 C6.38375593,42.8571429 6,42.4733869 6,42 L6,24.8571429 C6,24.3837559 6.38375593,24 6.85714286,24 L32.5714286,24 C33.0448155,24 33.4285714,24.3837559 33.4285714,24.8571429 L33.4285714,29.1428571 L36,29.1428571 C36.2273098,29.1428571 36.4452919,29.2332434 36.606,29.394 L38.5714286,31.3594286 L38.5714286,30 C38.5714286,29.5266131 38.9551845,29.1428571 39.4285714,29.1428571 L48,29.1428571 C48.4733869,29.1428571 48.8571429,29.5266131 48.8571429,30 L48.8571429,30.8571429 L53.1428571,30.8571429 L53.1428571,32.5714286 L48.8571429,32.5714286 L48.8571429,34.2857143 L47.1428571,34.2857143 L47.1428571,30.8571429 L44.5714286,30.8571429 L44.5714286,44.5714286 L42.8571429,44.5714286 L42.8571429,30.8571429 Z M38.5714286,33.7834286 L35.6451429,30.8571429 L33.4285714,30.8571429 L33.4285714,32.5714286 L34.2857143,32.5714286 L34.2857143,34.2857143 L16.2857143,34.2857143 C15.8123274,34.2857143 15.4285714,34.6694702 15.4285714,35.1428571 C15.4285714,35.6162441 15.8123274,36 16.2857143,36 L22.2857143,36 L25.7142857,36 L25.7142857,37.7142857 L19.2857143,37.7142857 L14.5714286,37.7142857 C14.0980416,37.7142857 13.7142857,38.0980416 13.7142857,38.5714286 C13.7142857,39.0448155 14.0980416,39.4285714 14.5714286,39.4285714 L22.2857143,39.4285714 L25.7142857,39.4285714 L25.7142857,41.1428571 L16.2857143,41.1428571 C15.8123274,41.1428571 15.4285714,41.5266131 15.4285714,42 C15.4285714,42.4733869 15.8123274,42.8571429 16.2857143,42.8571429 L24,42.8571429 L25.7142857,42.8571429 L25.7142857,44.5714286 L18,44.5714286 C17.5266131,44.5714286 17.1428571,44.9551845 17.1428571,45.4285714 C17.1428571,45.9019584 17.5266131,46.2857143 18,46.2857143 L35.6451429,46.2857143 L38.5714286,43.3594286 L38.5714286,33.7834286 Z M13.8606049,41.1428571 C13.87131,41.1125695 13.8825665,41.0825424 13.8943622,41.0527877 C13.0793682,40.8309292 12.4254398,40.2182764 12.1463192,39.4285714 L7.71428571,39.4285714 L7.71428571,41.1428571 L13.8606049,41.1428571 Z M12.1463192,37.7142857 C12.4254398,36.9245808 13.0793682,36.311928 13.8943622,36.0900694 C13.8825665,36.0603148 13.87131,36.0302876 13.8606049,36 L7.71428571,36 L7.71428571,37.7142857 L12.1463192,37.7142857 Z M13.8606049,34.2857143 C14.2136075,33.286978 15.1660981,32.5714286 16.2857143,32.5714286 L31.7142857,32.5714286 L31.7142857,25.7142857 L7.71428571,25.7142857 L7.71428571,34.2857143 L13.8606049,34.2857143 Z M12.8571429,27.2261944 C13.312077,26.8190173 13.9128391,26.5714286 14.5714286,26.5714286 C15.9915894,26.5714286 17.1428571,27.7226964 17.1428571,29.1428571 C17.1428571,30.5630179 15.9915894,31.7142857 14.5714286,31.7142857 C13.9128391,31.7142857 13.312077,31.4666969 12.8571429,31.0595199 C12.4022087,31.4666969 11.8014467,31.7142857 11.1428571,31.7142857 C9.72269636,31.7142857 8.57142857,30.5630179 8.57142857,29.1428571 C8.57142857,27.7226964 9.72269636,26.5714286 11.1428571,26.5714286 C11.8014467,26.5714286 12.4022087,26.8190173 12.8571429,27.2261944 Z M11.1428571,28.2857143 C10.6694702,28.2857143 10.2857143,28.6694702 10.2857143,29.1428571 C10.2857143,29.6162441 10.6694702,30 11.1428571,30 C11.6162441,30 12,29.6162441 12,29.1428571 C12,28.6694702 11.6162441,28.2857143 11.1428571,28.2857143 Z M14.5714286,28.2857143 C14.0980416,28.2857143 13.7142857,28.6694702 13.7142857,29.1428571 C13.7142857,29.6162441 14.0980416,30 14.5714286,30 C15.0448155,30 15.4285714,29.6162441 15.4285714,29.1428571 C15.4285714,28.6694702 15.0448155,28.2857143 14.5714286,28.2857143 Z" id="icon_eprocurement" fill="#00A8A5" fill-rule="nonzero"></path>
    </g>
</svg>