<?xml version="1.0" encoding="UTF-8"?>
<svg width="48px" height="48px" viewBox="0 0 48 48" version="1.1" xmlns="http://www.w3.org/2000/svg" xmlns:xlink="http://www.w3.org/1999/xlink">
    <!-- Generator: Sketch 55.2 (78181) - https://sketchapp.com -->
    <title>icon_ecommerce</title>
    <desc>Created with Sketch.</desc>
    <g id="Page-1" stroke="none" stroke-width="1" fill="none" fill-rule="evenodd">
        <path d="M2,8 L38,8 L38,10 L2,10 L2,35 C2,35.5522847 2.44771525,36 3,36 L22,36 L22,38 L3,38 C1.34314575,38 0,36.6568542 0,35 L0,3 C0,1.34314575 1.34314575,0 3,0 L39,0 C40.6568542,0 42,1.34314575 42,3 L42,20 L40,20 L40,3 C40,2.44771525 39.5522847,2 39,2 L3,2 C2.44771525,2 2,2.44771525 2,3 L2,8 Z M24.4611671,22 L47,22 C47.2940076,22 47.5730803,22.1295502 47.7630182,22.3539696 C47.952956,22.578389 48.0345113,22.8750222 47.986,23.165 L45.986,35.165 C45.9053979,35.6468022 45.4884978,35.9998566 45,36 L26.5610209,36 L26.861,38 L45,38 L45,40 L26,40 C25.5048682,40 25.0842795,39.6376791 25.011,39.148 L22.139,20 L19,20 L19,18 L23,18 C23.4951318,18 23.9157205,18.3623209 23.989,18.852 L24.4611671,22 Z M24.7611462,24 L26.2610418,34 L44.153,34 L45.819,24 L24.7611462,24 Z M28,48 C26.3431458,48 25,46.6568542 25,45 C25,43.3431458 26.3431458,42 28,42 C29.6568542,42 31,43.3431458 31,45 C31,46.6568542 29.6568542,48 28,48 Z M28,44 C27.4477153,44 27,44.4477153 27,45 C27,45.5522847 27.4477153,46 28,46 C28.5522847,46 29,45.5522847 29,45 C29,44.4477153 28.5522847,44 28,44 Z M43,48 C41.3431458,48 40,46.6568542 40,45 C40,43.3431458 41.3431458,42 43,42 C44.6568542,42 46,43.3431458 46,45 C46,46.6568542 44.6568542,48 43,48 Z M43,44 C42.4477153,44 42,44.4477153 42,45 C42,45.5522847 42.4477153,46 43,46 C43.5522847,46 44,45.5522847 44,45 C44,44.4477153 43.5522847,44 43,44 Z M4,4 L6,4 L6,6 L4,6 L4,4 Z M8,4 L10,4 L10,6 L8,6 L8,4 Z M12,4 L14,4 L14,6 L12,6 L12,4 Z M36,4 L38,4 L38,6 L36,6 L36,4 Z M8,14 L17,14 L17,16 L8,16 L8,14 Z M4,18 L17,18 L17,20 L4,20 L4,18 Z M4,22 L17,22 L17,24 L4,24 L4,22 Z M4,26 L17,26 L17,28 L4,28 L4,26 Z M4,30 L13,30 L13,32 L4,32 L4,30 Z M15,30 L17,30 L17,32 L15,32 L15,30 Z M27,14 L38,14 L38,16 L27,16 L27,14 Z M27,18 L38,18 L38,20 L27,20 L27,18 Z" id="icon_ecommerce" fill="#00A8A5" fill-rule="nonzero"></path>
    </g>
</svg>