<?xml version="1.0" encoding="UTF-8"?>
<svg width="48px" height="48px" viewBox="0 0 48 48" version="1.1" xmlns="http://www.w3.org/2000/svg" xmlns:xlink="http://www.w3.org/1999/xlink">
    <!-- Generator: Sketch 55.2 (78181) - https://sketchapp.com -->
    <title>double-rotate-2</title>
    <desc>Created with Sketch.</desc>
    <g id="Page-1" stroke="none" stroke-width="1" fill="none" fill-rule="evenodd">
        <g id="double-rotate-2" fill="#00A8A5" fill-rule="nonzero">
            <path d="M38,17 C38,17.552 38.448,18 39,18 L47,18 C47.552,18 48,17.552 48,17 L48,9.084 C48,8.532 47.552,8.084 47,8.084 C46.448,8.084 46,8.532 46,9.084 L46,14.982 C40.672,5.18 33.096,0 24,0 C10.766,0 0,10.766 0,24 C0,37.234 10.766,48 24,48 C37.234,48 48,37.234 48,24 C48,23.448 47.552,23 47,23 C46.448,23 46,23.448 46,24 C46,36.13 36.13,46 24,46 C11.87,46 2,36.13 2,24 C2,11.87 11.87,2 24,2 C34.332,2 40.658,9.316 44.284,16 L39,16 C38.448,16 38,16.448 38,17 Z M20,31 C20,30.448 19.552,30 19,30 L13,30 C12.972,30 12.95,30.014 12.922,30.016 C12.892,30.02 12.866,30.026 12.836,30.034 C12.366,30.114 12,30.506 12,31 L12,37 C12,37.552 12.448,38 13,38 C13.552,38 14,37.552 14,37 L14,33.752 C16.608,36.436 20.174,38 24,38 C31.718,38 38,31.718 38,24 C38,16.282 31.718,10 24,10 C16.282,10 10,16.282 10,24 C10,24.362 10.026,24.714 10.05,25.078 L12.044,24.92 C12.022,24.616 11.998,24.312 11.998,24.002 C11.998,17.384 17.38,12.002 23.998,12.002 C30.616,12.002 35.998,17.384 35.998,24.002 C35.998,30.62 30.616,36.002 23.998,36.002 C20.552,36.002 17.346,34.524 15.088,32 L19,32 C19.552,32 20,31.552 20,31 Z" id="Shape"></path>
        </g>
    </g>
</svg>