<?xml version="1.0" encoding="UTF-8"?>
<svg width="66px" height="48px" viewBox="0 0 66 48" version="1.1" xmlns="http://www.w3.org/2000/svg" xmlns:xlink="http://www.w3.org/1999/xlink">
    <!-- Generator: Sketch 55.2 (78181) - https://sketchapp.com -->
    <title>Combined Shape</title>
    <desc>Created with Sketch.</desc>
    <g id="Page-1" stroke="none" stroke-width="1" fill="none" fill-rule="evenodd">
        <g id="responsive-design" fill="#00A8A5" fill-rule="nonzero">
            <path d="M30.5454545,39.2727273 L30.5454545,45.8181818 L40.3636364,45.8181818 C41.0181818,45.8181818 41.4545455,46.2545455 41.4545455,46.9090909 C41.4545455,47.5636364 41.0181818,48 40.3636364,48 L18.5454545,48 C17.8909091,48 17.4545455,47.5636364 17.4545455,46.9090909 C17.4545455,46.2545455 17.8909091,45.8181818 18.5454545,45.8181818 L28.3636364,45.8181818 L28.3636364,39.2727273 L6.76363636,39.2727273 C3.05454545,39.2727273 -1.42108547e-14,36.2181818 -1.42108547e-14,32.5090909 L-1.42108547e-14,6.76363636 C-1.42108547e-14,3.05454545 3.05454545,0 6.76363636,0 L51.9272727,0 C55.8545455,0 58.9090909,3.05454545 58.9090909,6.76363636 L58.9090909,13.0909091 L62.1818182,13.0909091 C63.9272727,13.0909091 65.4545455,14.6181818 65.4545455,16.3636364 L65.4545455,44.7272727 C65.4545455,46.4727273 63.9272727,48 62.1818182,48 L49.0909091,48 C47.3454545,48 45.8181818,46.4727273 45.8181818,44.7272727 L45.8181818,39.2727273 L30.5454545,39.2727273 Z M2.18181818,30.5454545 L2.18181818,32.2909091 C2.18181818,34.9090909 4.36363636,37.0909091 6.76363636,37.0909091 L45.8181818,37.0909091 L45.8181818,30.5454545 L2.18181818,30.5454545 Z M2.18181818,28.3636364 L45.8181818,28.3636364 L45.8181818,16.3636364 C45.8181818,14.6181818 47.3454545,13.0909091 49.0909091,13.0909091 L56.7272727,13.0909091 L56.7272727,6.76363636 C56.7272727,4.36363636 54.5454545,2.18181818 52.1454545,2.18181818 L6.76363636,2.18181818 C4.36363636,2.18181818 2.18181818,4.36363636 2.18181818,6.76363636 L2.18181818,28.3636364 Z M63.2727273,39.2727273 L63.2727273,21.8181818 L48,21.8181818 L48,39.2727273 L63.2727273,39.2727273 Z M63.2727273,41.4545455 L48,41.4545455 L48,44.7272727 C48,45.3818182 48.4363636,45.8181818 49.0909091,45.8181818 L62.1818182,45.8181818 C62.8363636,45.8181818 63.2727273,45.3818182 63.2727273,44.7272727 L63.2727273,41.4545455 Z M63.2727273,19.6363636 L63.2727273,16.3636364 C63.2727273,15.7090909 62.8363636,15.2727273 62.1818182,15.2727273 L49.0909091,15.2727273 C48.4363636,15.2727273 48,15.7090909 48,16.3636364 L48,19.6363636 L63.2727273,19.6363636 Z M57.8181818,28.3636364 L53.4545455,28.3636364 C52.8,28.3636364 52.3636364,27.9272727 52.3636364,27.2727273 C52.3636364,26.6181818 52.8,26.1818182 53.4545455,26.1818182 L57.8181818,26.1818182 C58.4727273,26.1818182 58.9090909,26.6181818 58.9090909,27.2727273 C58.9090909,27.9272727 58.4727273,28.3636364 57.8181818,28.3636364 Z M57.8181818,34.9090909 L53.4545455,34.9090909 C52.8,34.9090909 52.3636364,34.4727273 52.3636364,33.8181818 C52.3636364,33.1636364 52.8,32.7272727 53.4545455,32.7272727 L57.8181818,32.7272727 C58.4727273,32.7272727 58.9090909,33.1636364 58.9090909,33.8181818 C58.9090909,34.4727273 58.4727273,34.9090909 57.8181818,34.9090909 Z M46.9090909,10.9090909 L12,10.9090909 C11.3454545,10.9090909 10.9090909,10.4727273 10.9090909,9.81818182 C10.9090909,9.16363636 11.3454545,8.72727273 12,8.72727273 L46.9090909,8.72727273 C47.5636364,8.72727273 48,9.16363636 48,9.81818182 C48,10.4727273 47.5636364,10.9090909 46.9090909,10.9090909 Z M40.3636364,19.6363636 L12,19.6363636 C11.3454545,19.6363636 10.9090909,19.2 10.9090909,18.5454545 C10.9090909,17.8909091 11.3454545,17.4545455 12,17.4545455 L40.3636364,17.4545455 C41.0181818,17.4545455 41.4545455,17.8909091 41.4545455,18.5454545 C41.4545455,19.2 41.0181818,19.6363636 40.3636364,19.6363636 Z" id="Combined-Shape"></path>
        </g>
    </g>
</svg>