<?xml version="1.0" encoding="UTF-8"?>
<svg width="53px" height="48px" viewBox="0 0 53 48" version="1.1" xmlns="http://www.w3.org/2000/svg" xmlns:xlink="http://www.w3.org/1999/xlink">
    <!-- Generator: Sketch 55.2 (78181) - https://sketchapp.com -->
    <title>icon_marketplace</title>
    <desc>Created with Sketch.</desc>
    <g id="Page-1" stroke="none" stroke-width="1" fill="none" fill-rule="evenodd">
        <path d="M27.2727273,26.1218959 C32.1817641,25.5792294 36,21.4173313 36,16.3636364 C35.9974297,14.0465413 35.1932018,11.9172781 33.8497346,10.2382654 L27.2727273,16.8152727 L27.2727273,26.1218959 Z M25.0909091,26.1218959 L25.0909091,17.0049697 L17.1204765,12.5769516 C16.6329465,13.7422188 16.3636364,15.0214772 16.3636364,16.3636364 C16.3636364,21.4173313 20.1818722,25.5792294 25.0909091,26.1218959 Z M32.3071256,8.69566905 C30.6281227,7.35223249 28.498884,6.54802478 26.1818182,6.54545455 C22.8813478,6.54545455 19.9612416,8.17398687 18.1812217,10.6713293 L25.992,15.0098182 L32.3071256,8.69566905 Z M36.2411665,9.81818182 L38.8210909,9.81818182 L43.956,4.68327273 C44.1605375,4.47867341 44.4379693,4.36363636 44.7272727,4.36363636 L50.1818182,4.36363636 L50.1818182,3.27272727 C50.1818182,2.67023482 49.6934015,2.18181818 49.0909091,2.18181818 L3.27272727,2.18181818 C2.67023482,2.18181818 2.18181818,2.67023482 2.18181818,3.27272727 L2.18181818,30.5454545 L5.00290909,30.5454545 L9.81818182,25.7301818 L9.81818182,19.6363636 C9.81818182,19.0338712 10.3065985,18.5454545 10.9090909,18.5454545 L14.3796832,18.5454545 C14.2497236,17.8379427 14.1818182,17.1087196 14.1818182,16.3636364 C14.1818182,9.73621937 19.5544012,4.36363636 26.1818182,4.36363636 C30.3944229,4.36363636 34.100038,6.53431716 36.2411665,9.81818182 Z M37.3637666,12 C37.636304,12.6978667 37.8453965,13.427503 37.9839532,14.1818182 L40.5498608,14.1818182 C40.9991369,12.9106992 42.2113976,12 43.6363636,12 L50.1818182,12 L50.1818182,6.54545455 L45.1789091,6.54545455 L40.044,11.6803636 C39.8394625,11.884963 39.5620307,12 39.2727273,12 L37.3637666,12 Z M14.9998698,20.7272727 L12,20.7272727 L12,26.1818182 C11.9999382,26.4711216 11.884963,26.7485534 11.6803636,26.9530909 L8.088,30.5454545 L50.1818182,30.5454545 L50.1818182,22.9090909 L43.6363636,22.9090909 C42.2113976,22.9090909 40.9991369,21.9983917 40.5498608,20.7272727 L37.3592536,20.7272727 C35.6109074,25.1935071 31.2664193,28.3576379 26.1818182,28.3636364 C21.0938565,28.3636364 16.7454751,25.1971166 14.9998698,20.7272727 Z M50.1818182,20.7272727 L50.1818182,14.1818182 L43.6363636,14.1818182 C43.0338712,14.1818182 42.5454545,14.6702348 42.5454545,15.2727273 L42.5454545,19.6363636 C42.5454545,20.2388561 43.0338712,20.7272727 43.6363636,20.7272727 L50.1818182,20.7272727 Z M20.7272727,41.4545455 L3.27272727,41.4545455 C1.46524991,41.4545455 7.10542736e-15,39.9892955 7.10542736e-15,38.1818182 L7.10542736e-15,3.27272727 C7.10542736e-15,1.46524991 1.46524991,0 3.27272727,0 L49.0909091,0 C50.8983865,0 52.3636364,1.46524991 52.3636364,3.27272727 L52.3636364,38.1818182 C52.3636364,39.9892955 50.8983865,41.4545455 49.0909091,41.4545455 L31.6363636,41.4545455 L31.6363636,45.8181818 L36,45.8181818 L36,48 L16.3636364,48 L16.3636364,45.8181818 L20.7272727,45.8181818 L20.7272727,41.4545455 Z M21.8181818,39.2727273 L30.5454545,39.2727273 L49.0909091,39.2727273 C49.6934015,39.2727273 50.1818182,38.7843106 50.1818182,38.1818182 L50.1818182,32.7272727 L2.18181818,32.7272727 L2.18181818,38.1818182 C2.18181818,38.7843106 2.67023482,39.2727273 3.27272727,39.2727273 L21.8181818,39.2727273 Z M29.4545455,41.4545455 L22.9090909,41.4545455 L22.9090909,45.8181818 L29.4545455,45.8181818 L29.4545455,41.4545455 Z M40.3636364,18.5454545 L40.3636364,16.3636364 L38.1818182,16.3636364 L38.1818182,18.5454545 L40.3636364,18.5454545 Z M25.0909091,34.9090909 L27.2727273,34.9090909 L27.2727273,37.0909091 L25.0909091,37.0909091 L25.0909091,34.9090909 Z M4.36363636,4.36363636 L13.0909091,4.36363636 L13.0909091,6.54545455 L4.36363636,6.54545455 L4.36363636,4.36363636 Z M4.36363636,8.72727273 L8.72727273,8.72727273 L8.72727273,10.9090909 L4.36363636,10.9090909 L4.36363636,8.72727273 Z M4.36363636,13.0909091 L10.9090909,13.0909091 L10.9090909,15.2727273 L4.36363636,15.2727273 L4.36363636,13.0909091 Z" id="icon_marketplace" fill="#00A8A5" fill-rule="nonzero"></path>
    </g>
</svg>