<?xml version="1.0" encoding="UTF-8"?>
<svg width="53px" height="48px" viewBox="0 0 53 48" version="1.1" xmlns="http://www.w3.org/2000/svg" xmlns:xlink="http://www.w3.org/1999/xlink">
    <!-- Generator: Sketch 55.2 (78181) - https://sketchapp.com -->
    <title>icon_esourcing</title>
    <desc>Created with Sketch.</desc>
    <g id="Page-1" stroke="none" stroke-width="1" fill="none" fill-rule="evenodd">
        <path d="M6.62068966,10.6543304 C5.19291541,10.2868467 4.13793103,8.99076367 4.13793103,7.44827586 C4.13793103,5.6200229 5.6200229,4.13793103 7.44827586,4.13793103 C9.27652883,4.13793103 10.7586207,5.6200229 10.7586207,7.44827586 C10.7586207,8.3262339 10.4098532,9.16823306 9.78904314,9.78904314 C9.36735341,10.2107329 8.84360917,10.5069048 8.27586207,10.653513 L8.27586207,12.8987586 L10.2736552,14.8965517 L12.4137931,14.8965517 L12.4137931,16.5517241 L9.93103448,16.5517241 C9.71156291,16.5517241 9.50109743,16.4644547 9.34593103,16.3092414 L6.86317241,13.8264828 C6.70795914,13.6713164 6.62068966,13.4608509 6.62068966,13.2413793 L6.62068966,10.6543304 Z M44.6896552,10.6543304 C43.2618809,10.2868467 42.2068966,8.99076367 42.2068966,7.44827586 C42.2068966,5.6200229 43.6889884,4.13793103 45.5172414,4.13793103 C47.3454943,4.13793103 48.8275862,5.6200229 48.8275862,7.44827586 C48.8275862,8.3262339 48.4788187,9.16823306 47.8580087,9.78904314 C47.4363189,10.2107329 46.9125747,10.5069048 46.3448276,10.653513 L46.3448276,13.2413793 C46.3448276,13.4608509 46.2575581,13.6713164 46.1023448,13.8264828 L43.6195862,16.3092414 C43.4644198,16.4644547 43.2539543,16.5517241 43.0344828,16.5517241 L40.5517241,16.5517241 L40.5517241,14.8965517 L42.6918621,14.8965517 L44.6896552,12.8987586 L44.6896552,10.6543304 Z M42.3111869,26.4827586 L39.7241379,26.4827586 C39.5046664,26.4827117 39.2942009,26.3954891 39.1390345,26.2402759 L37.4838621,24.5851034 L38.654069,23.4148966 L40.0667586,24.8275862 L42.3111869,24.8275862 C42.6786706,23.399812 43.9747536,22.3448276 45.5172414,22.3448276 C47.3454943,22.3448276 48.8275862,23.8269194 48.8275862,25.6551724 C48.8275862,27.4834254 47.3454943,28.9655172 45.5172414,28.9655172 C43.9747536,28.9655172 42.6786706,27.9105329 42.3111869,26.4827586 Z M10.6543304,24.8275862 L12.8987586,24.8275862 L14.3114483,23.4148966 L15.4816552,24.5851034 L13.8264828,26.2402759 C13.6713164,26.3954891 13.4608509,26.4827117 13.2413793,26.4827586 L10.6543304,26.4827586 C10.2868467,27.9105329 8.99076367,28.9655172 7.44827586,28.9655172 C5.6200229,28.9655172 4.13793103,27.4834254 4.13793103,25.6551724 C4.13793103,23.8269194 5.6200229,22.3448276 7.44827586,22.3448276 C8.99076367,22.3448276 10.2868467,23.399812 10.6543304,24.8275862 Z M34.1631724,38.0689655 L35.4045517,43.0344828 L37.2413793,43.0344828 C38.1555058,43.0344828 38.8965517,43.7755287 38.8965517,44.6896552 L38.8965517,46.3448276 C38.8965517,47.2589541 38.1555058,48 37.2413793,48 L15.7241379,48 C14.8100114,48 14.0689655,47.2589541 14.0689655,46.3448276 L14.0689655,44.6896552 C14.0689655,43.7755287 14.8100114,43.0344828 15.7241379,43.0344828 L17.5609655,43.0344828 L18.8023448,38.0689655 L0.827586207,38.0689655 C0.370522966,38.0689655 -3.55271368e-15,37.6984426 -3.55271368e-15,37.2413793 L-3.55271368e-15,0.827586207 C-3.55271368e-15,0.370522966 0.370522966,0 0.827586207,0 L52.137931,0 C52.5949943,0 52.9655172,0.370522966 52.9655172,0.827586207 L52.9655172,32.2758621 L52.9655172,37.2413793 C52.9655172,37.6984426 52.5949943,38.0689655 52.137931,38.0689655 L34.1631724,38.0689655 Z M51.3103448,31.4482759 L51.3103448,1.65517241 L1.65517241,1.65517241 L1.65517241,31.4482759 L51.3103448,31.4482759 Z M20.5084138,38.0689655 L19.2670345,43.0344828 L33.6984828,43.0344828 L32.4571034,38.0689655 L20.5084138,38.0689655 Z M34.7586207,44.6896552 L18.2068966,44.6896552 L15.7241379,44.6896552 L15.7241379,46.3448276 L37.2413793,46.3448276 L37.2413793,44.6896552 L34.7586207,44.6896552 Z M1.65517241,36.4137931 L51.3103448,36.4137931 L51.3103448,33.1034483 L1.65517241,33.1034483 L1.65517241,36.4137931 Z M28.137931,28.9655199 L24.8275862,28.9655199 C24.3925198,28.9666151 24.0308884,28.6306596 24,28.1966897 L23.7906207,25.2413793 C23.2558043,25.0754589 22.737463,24.8604761 22.2422069,24.5991724 L20.0027586,26.5398621 C19.6747797,26.8243325 19.1827255,26.8069914 18.8755862,26.5001379 L16.5343448,24.1588966 C16.2274914,23.8517572 16.2101503,23.3597031 16.4946207,23.0317241 L18.4353103,20.7922759 C18.1740067,20.2970198 17.9590238,19.7786785 17.7931034,19.2438621 L14.8377931,19.0344828 C14.4038232,19.0035943 14.0678676,18.641963 14.0689628,18.2068966 L14.0689628,14.8965517 C14.0678676,14.4614853 14.4038232,14.0998539 14.8377931,14.0689655 L17.7931034,13.8571034 C17.9590238,13.322287 18.1740067,12.8039457 18.4353103,12.3086897 L16.4946207,10.0717241 C16.2101503,9.7437452 16.2274914,9.25169105 16.5343448,8.94455172 L18.8755862,6.60331034 C19.1827255,6.29645689 19.6747797,6.27911577 20.0027586,6.56358621 L22.2422069,8.50427586 C22.737463,8.24297217 23.2558043,8.02798936 23.7906207,7.86206897 L24,4.90675862 C24.0308884,4.47278871 24.3925198,4.13683316 24.8275862,4.13792835 L28.137931,4.13792835 C28.5729974,4.13683316 28.9346288,4.47278871 28.9655172,4.90675862 L29.1773793,7.86206897 C29.7121957,8.02798936 30.230537,8.24297217 30.7257931,8.50427586 L32.9652414,6.56358621 C33.2932203,6.27911577 33.7852745,6.29645689 34.0924138,6.60331034 L36.4336552,8.94455172 C36.7405086,9.25169105 36.7578497,9.7437452 36.4733793,10.0717241 L34.5326897,12.3111724 C34.7939933,12.8064285 35.0089762,13.3247698 35.1748966,13.8595862 L38.1277241,14.0689655 C38.5616941,14.0998539 38.8976496,14.4614853 38.8965544,14.8965517 L38.8965544,18.2068966 C38.8976496,18.641963 38.5616941,19.0035943 38.1277241,19.0344828 L35.1724138,19.2463448 C35.0064934,19.7811613 34.7915106,20.2995026 34.5302069,20.7947586 L36.4708966,23.0342069 C36.755367,23.3621858 36.7380259,23.85424 36.4311724,24.1613793 L34.089931,26.5026207 C33.7827917,26.8094741 33.2907376,26.8268153 32.9627586,26.5423448 L30.7233103,24.6016552 C30.2280543,24.8629589 29.709713,25.0779417 29.1748966,25.2438621 L28.9655172,28.1966897 C28.9346288,28.6306596 28.5729974,28.9666151 28.137931,28.9655199 Z M25.598069,27.3103448 L27.3674483,27.3103448 L27.566069,24.5387586 C27.5923689,24.1788161 27.8488883,23.8774226 28.2,23.793931 C28.9731546,23.6095909 29.7116696,23.3022256 30.3873103,22.8835862 C30.6959217,22.6947413 31.0914313,22.728259 31.3638621,22.9663448 L33.4651034,24.7870345 L34.7155862,23.5365517 L32.8948966,21.4353103 C32.6581314,21.1619375 32.6262944,20.7664882 32.8162759,20.4587586 C33.2349152,19.7831179 33.5422805,19.0446029 33.7266207,18.2714483 C33.8101122,17.9203365 34.1115058,17.6638171 34.4714483,17.6375172 L37.2413793,17.4364138 L37.2413793,15.6670345 L34.4697931,15.4684138 C34.1098506,15.4421139 33.808457,15.1855945 33.7249655,14.8344828 C33.5406254,14.0613282 33.23326,13.3228131 32.8146207,12.6471724 C32.6246393,12.3394428 32.6564763,11.9439936 32.8932414,11.6706207 L34.713931,9.56937931 L33.4634483,8.31889655 L31.3622069,10.1395862 C31.088834,10.3763513 30.6933848,10.4081883 30.3856552,10.2182069 C29.7100144,9.79956754 28.9714994,9.49220222 28.1983448,9.30786207 C27.8472331,9.22437054 27.5907137,8.92297698 27.5644138,8.56303448 L27.3674483,5.79310345 L25.598069,5.79310345 L25.3994483,8.56468966 C25.3731484,8.92463215 25.116629,9.22602571 24.7655172,9.30951724 C23.9923627,9.49385739 23.2538476,9.80122271 22.5782069,10.2198621 C22.2704773,10.4098435 21.875028,10.3780065 21.6016552,10.1412414 L19.5004138,8.32055172 L18.249931,9.57103448 L20.0706207,11.6722759 C20.3087065,11.9447066 20.3422242,12.3402163 20.1533793,12.6488276 C19.73474,13.3244683 19.4273746,14.0629833 19.2430345,14.8361379 C19.159543,15.1872497 18.8581494,15.4437691 18.4982069,15.470069 L15.7241379,15.6670345 L15.7241379,17.4364138 L18.4957241,17.6350345 C18.8556666,17.6613344 19.1570602,17.9178538 19.2405517,18.2689655 C19.4248919,19.0421201 19.7322572,19.7806351 20.1508966,20.4562759 C20.3397415,20.7648872 20.3062237,21.1603968 20.0681379,21.4328276 L18.2474483,23.534069 L19.497931,24.7845517 L21.5991724,22.9638621 C21.8716032,22.7257763 22.2671128,22.6922585 22.5757241,22.8811034 C23.2513649,23.2997428 23.9898799,23.6071081 24.7630345,23.7914483 C25.1141462,23.8749398 25.3706656,24.1763334 25.3969655,24.5362759 L25.598069,27.3103448 Z M26.4827586,21.5172414 C23.7403792,21.5172414 21.5172414,19.2941036 21.5172414,16.5517241 C21.5172414,13.8093447 23.7403792,11.5862069 26.4827586,11.5862069 C29.2251381,11.5862069 31.4482759,13.8093447 31.4482759,16.5517241 C31.4455387,19.292969 29.2240035,21.5145042 26.4827586,21.5172414 Z M26.4827586,13.2413793 C24.6545057,13.2413793 23.1724138,14.7234712 23.1724138,16.5517241 C23.1724138,18.3799771 24.6545057,19.862069 26.4827586,19.862069 C28.3110116,19.862069 29.7931034,18.3799771 29.7931034,16.5517241 C29.7931034,14.7234712 28.3110116,13.2413793 26.4827586,13.2413793 Z M7.44827586,5.79310345 C6.53414938,5.79310345 5.79310345,6.53414938 5.79310345,7.44827586 C5.79310345,8.36240234 6.53414938,9.10344828 7.44827586,9.10344828 C8.36240234,9.10344828 9.10344828,8.36240234 9.10344828,7.44827586 C9.10344828,6.53414938 8.36240234,5.79310345 7.44827586,5.79310345 Z M45.5172414,5.79310345 C44.6031149,5.79310345 43.862069,6.53414938 43.862069,7.44827586 C43.862069,8.36240234 44.6031149,9.10344828 45.5172414,9.10344828 C46.4313679,9.10344828 47.1724138,8.36240234 47.1724138,7.44827586 C47.1724138,6.53414938 46.4313679,5.79310345 45.5172414,5.79310345 Z M45.5172414,24 C44.6031149,24 43.862069,24.7410459 43.862069,25.6551724 C43.862069,26.5692989 44.6031149,27.3103448 45.5172414,27.3103448 C46.4313679,27.3103448 47.1724138,26.5692989 47.1724138,25.6551724 C47.1724138,24.7410459 46.4313679,24 45.5172414,24 Z M7.44827586,24 C6.53414938,24 5.79310345,24.7410459 5.79310345,25.6551724 C5.79310345,26.5692989 6.53414938,27.3103448 7.44827586,27.3103448 C8.36240234,27.3103448 9.10344828,26.5692989 9.10344828,25.6551724 C9.10344828,24.7410459 8.36240234,24 7.44827586,24 Z" id="icon_esourcing" fill="#00A8A5" fill-rule="nonzero"></path>
    </g>
</svg>