<?xml version="1.0" encoding="UTF-8"?>
<svg width="41px" height="50px" viewBox="0 0 41 50" version="1.1" xmlns="http://www.w3.org/2000/svg" xmlns:xlink="http://www.w3.org/1999/xlink">
    <!-- Generator: Sketch 55.2 (78181) - https://sketchapp.com -->
    <title>25-process</title>
    <desc>Created with Sketch.</desc>
    <g id="Page-1" stroke="none" stroke-width="1" fill="none" fill-rule="evenodd" stroke-linejoin="round">
        <g id="25-process" transform="translate(1.000000, 1.000000)" stroke="#00A8A5" stroke-width="2">
            <polygon id="Path" points="9.29032258 38.7096774 0 38.7096774 9.29032258 48"></polygon>
            <polygon id="Path" points="38.7096774 48 38.7096774 0 0 0 0 38.7096774 9.29032258 48"></polygon>
            <path d="M11.6129032,44.9032258 L13.1612903,44.9032258" id="Path"></path>
            <path d="M14.7096774,44.9032258 L28.6451613,44.9032258" id="Path"></path>
            <path d="M11.6129032,41.8064516 L25.5483871,41.8064516" id="Path"></path>
            <rect id="Rectangle" x="13.1612903" y="30.9677419" width="12.3870968" height="4.64516129"></rect>
            <rect id="Rectangle" x="13.1612903" y="13.9354839" width="12.3870968" height="4.64516129"></rect>
            <rect id="Rectangle" x="13.1612903" y="6.19354839" width="12.3870968" height="4.64516129"></rect>
            <rect id="Rectangle" x="27.8709677" y="22.4516129" width="7.74193548" height="4.64516129"></rect>
            <rect id="Rectangle" x="3.09677419" y="22.4516129" width="7.74193548" height="4.64516129"></rect>
            <polygon id="Path" points="19.3548387 27.8709677 13.9354839 24.7741935 19.3548387 21.6774194 24.7741935 24.7741935"></polygon>
            <path d="M19.3548387,10.8387097 L19.3548387,13.9354839" id="Path"></path>
            <path d="M19.3548387,18.5806452 L19.3548387,21.6774194" id="Path"></path>
            <path d="M19.3548387,27.8709677 L19.3548387,30.9677419" id="Path"></path>
            <path d="M24.7741935,24.7741935 L27.8709677,24.7741935" id="Path"></path>
            <path d="M10.8387097,24.7741935 L13.9354839,24.7741935" id="Path"></path>
            <polyline id="Path" points="31.7419355 22.4516129 31.7419355 16.2580645 25.5483871 16.2580645"></polyline>
            <polyline id="Path" points="13.1612903 8.51612903 6.96774194 8.51612903 6.96774194 16.2580645 13.1612903 16.2580645"></polyline>
        </g>
    </g>
</svg>