<?xml version="1.0" encoding="UTF-8"?>
<svg width="48px" height="48px" viewBox="0 0 48 48" version="1.1" xmlns="http://www.w3.org/2000/svg" xmlns:xlink="http://www.w3.org/1999/xlink">
    <!-- Generator: Sketch 55.2 (78181) - https://sketchapp.com -->
    <title>Group 2</title>
    <desc>Created with Sketch.</desc>
    <g id="Page-1" stroke="none" stroke-width="1" fill="none" fill-rule="evenodd">
        <g id="46-money-bag" transform="translate(-116.000000, 0.000000)" fill="#00A8A5" fill-rule="nonzero">
            <g id="Group-2" transform="translate(115.995583, 0.000000)">
                <path d="M20.0044173,37 L35.0044173,37 C36.6612716,37 38.0044173,35.6568542 38.0044173,34 L38.0044173,32 C38.0018136,31.259601 37.7237694,30.5466671 37.2244173,30 C37.7237694,29.4533329 38.0018136,28.740399 38.0044173,28 L38.0044173,26 C38.0018136,25.259601 37.7237694,24.5466671 37.2244173,24 C37.7237694,23.4533329 38.0018136,22.740399 38.0044173,22 L38.0044173,20 C38.0018136,19.259601 37.7237694,18.5466671 37.2244173,18 C37.7237694,17.4533329 38.0018136,16.740399 38.0044173,16 L38.0044173,14 C38.0044173,12.3431458 36.6612716,11 35.0044173,11 L22.0044173,11 C20.3475631,11 19.0044173,12.3431458 19.0044173,14 L19.0044173,16 C19.0083569,16.3561619 19.0760943,16.7087351 19.2044173,17.041 C13.8973396,17.5201421 9.89820628,22.0766041 10.1116193,27.4009919 C10.3250323,32.7253798 14.6760162,36.947151 20.0044173,37 Z M36.0044173,34 C36.0044173,34.5522847 35.5567021,35 35.0044173,35 L25.9794173,35 C27.3679741,33.9635915 28.4648337,32.5856272 29.1634173,31 L31.0044173,31 L31.0044173,33 L33.0044173,33 L33.0044173,31 L35.0044173,31 C35.5567021,31 36.0044173,31.4477153 36.0044173,32 L36.0044173,34 Z M36.0044173,28 C36.0044173,28.5522847 35.5567021,29 35.0044173,29 L29.8044173,29 C30.0738053,27.6802735 30.0738053,26.3197265 29.8044173,25 L31.0044173,25 L31.0044173,27 L33.0044173,27 L33.0044173,25 L35.0044173,25 C35.5567021,25 36.0044173,25.4477153 36.0044173,26 L36.0044173,28 Z M36.0044173,22 C36.0044173,22.5522847 35.5567021,23 35.0044173,23 L29.1634173,23 C28.4648337,21.4143728 27.3679741,20.0364085 25.9794173,19 L31.0044173,19 L31.0044173,21 L33.0044173,21 L33.0044173,19 L35.0044173,19 C35.5567021,19 36.0044173,19.4477153 36.0044173,20 L36.0044173,22 Z M21.0044173,14 C21.0044173,13.4477153 21.4521326,13 22.0044173,13 L23.0044173,13 L23.0044173,15 L25.0044173,15 L25.0044173,13 L27.0044173,13 L27.0044173,15 L29.0044173,15 L29.0044173,13 L31.0044173,13 L31.0044173,15 L33.0044173,15 L33.0044173,13 L35.0044173,13 C35.5567021,13 36.0044173,13.4477153 36.0044173,14 L36.0044173,16 C36.0044173,16.5522847 35.5567021,17 35.0044173,17 L22.0044173,17 C21.4521326,17 21.0044173,16.5522847 21.0044173,16 L21.0044173,14 Z M20.0044173,19 C24.4226953,19 28.0044173,22.581722 28.0044173,27 C28.0044173,31.418278 24.4226953,35 20.0044173,35 C15.5861393,35 12.0044173,31.418278 12.0044173,27 C12.0093772,22.5837781 15.5881954,19.0049599 20.0044173,19 L20.0044173,19 Z" id="Shape"></path>
                <path d="M20.0044173,30 C19.4521326,30 19.0044173,29.5522847 19.0044173,29 L17.0044173,29 C17.0096687,30.2667854 17.8100664,31.3937454 19.0044173,31.816 L19.0044173,33 L21.0044173,33 L21.0044173,31.816 C22.3809648,31.3311477 23.207111,29.9241559 22.9598046,28.485822 C22.7124983,27.0474881 21.4638546,25.9972346 20.0044173,26 C19.4521326,26 19.0044173,25.5522847 19.0044173,25 C19.0044173,24.4477153 19.4521326,24 20.0044173,24 C20.5567021,24 21.0044173,24.4477153 21.0044173,25 L23.0044173,25 C22.9991659,23.7332146 22.1987682,22.6062546 21.0044173,22.184 L21.0044173,21 L19.0044173,21 L19.0044173,22.184 C17.6278698,22.6688523 16.8017236,24.0758441 17.04903,25.514178 C17.2963364,26.9525119 18.5449801,28.0027654 20.0044173,28 C20.5567021,28 21.0044173,28.4477153 21.0044173,29 C21.0044173,29.5522847 20.5567021,30 20.0044173,30 Z" id="Path"></path>
                <path d="M24.0044173,-3.55271368e-15 C23.6000214,-3.55271368e-15 23.2354833,0.2437275 23.0807393,0.617345442 C22.9259954,0.990963384 23.0115094,1.42100575 23.2974173,1.707 L28.2974173,6.707 L29.7114173,5.293 L26.5664173,2.148 C36.719403,3.33415619 44.7178336,11.3572691 45.8727014,21.5138613 C47.0275692,31.6704536 41.0345909,41.2844768 31.4070959,44.7197969 C21.7796008,48.155117 11.0542313,44.5065994 5.51863818,35.9131546 C-0.0169548971,27.3197097 1.09574073,16.0455294 8.20441731,8.7 L6.76341731,7.3 C-1.17863005,15.4973722 -2.24882691,28.1540983 4.20403476,37.5686404 C10.6568964,46.9831825 22.8474777,50.5507818 33.3578869,46.1005767 C43.8682961,41.6503715 49.7905764,30.4136179 47.5210578,19.2278094 C45.2515391,8.04200087 35.4181381,0.00195963575 24.0044173,-3.55271368e-15 L24.0044173,-3.55271368e-15 Z" id="Path"></path>
            </g>
        </g>
    </g>
</svg>