<?xml version="1.0" encoding="UTF-8"?>
<svg width="48px" height="48px" viewBox="0 0 48 48" version="1.1" xmlns="http://www.w3.org/2000/svg" xmlns:xlink="http://www.w3.org/1999/xlink">
    <!-- Generator: Sketch 55.2 (78181) - https://sketchapp.com -->
    <title>46-money-bag</title>
    <desc>Created with Sketch.</desc>
    <g id="Page-1" stroke="none" stroke-width="1" fill="none" fill-rule="evenodd">
        <g id="46-money-bag" fill="#00A8A5" fill-rule="nonzero">
            <path d="M48,25 C48,23.3431458 46.6568542,22 45,22 L40,22 L40,1 C40,0.44771525 39.5522847,0 39,0 L1,0 C0.44771525,0 0,0.44771525 0,1 L0,38 C0,38.5522847 0.44771525,39 1,39 L16.586,39 L9.293,46.293 L10.707,47.707 L19.414,39 L20.051,39 C20.333291,41.8139476 21.7938768,44.3767896 24.0710443,46.0538399 C26.3482118,47.7308902 29.2290059,48.3653152 32,47.8 L32,48 L45,48 C46.6568542,48 48,46.6568542 48,45 L48,43 C47.9973963,42.259601 47.7193521,41.5466671 47.22,41 C47.7193521,40.4533329 47.9973963,39.740399 48,39 L48,37 C47.9973963,36.259601 47.7193521,35.5466671 47.22,35 C47.7193521,34.4533329 47.9973963,33.740399 48,33 L48,31 C47.9973963,30.259601 47.7193521,29.5466671 47.22,29 C47.7193521,28.4533329 47.9973963,27.740399 48,27 L48,25 Z M2,37 L2,2 L38,2 L38,22 L32,22 C30.3431458,22 29,23.3431458 29,25 L29,27 C29.0039396,27.3561619 29.071677,27.7087351 29.2,28.041 C24.3892719,28.4311118 20.5419689,32.1985167 20.051,37 L2,37 Z M30,46 C25.581722,46 22,42.418278 22,38 C22,33.581722 25.581722,30 30,30 C34.418278,30 38,33.581722 38,38 C37.9950401,42.4162219 34.4162219,45.9950401 30,46 L30,46 Z M46,45 C46,45.5522847 45.5522847,46 45,46 L35.974,46 C37.3631148,44.9639153 38.4603718,43.5858846 39.159,42 L45,42 C45.5522847,42 46,42.4477153 46,43 L46,45 Z M46,39 C46,39.5522847 45.5522847,40 45,40 L39.8,40 C40.069388,38.6802735 40.069388,37.3197265 39.8,36 L45,36 C45.5522847,36 46,36.4477153 46,37 L46,39 Z M46,33 C46,33.5522847 45.5522847,34 45,34 L39.159,34 C38.4603718,32.4141154 37.3631148,31.0360847 35.974,30 L45,30 C45.5522847,30 46,30.4477153 46,31 L46,33 Z M46,27 C46,27.5522847 45.5522847,28 45,28 L32,28 C31.4477153,28 31,27.5522847 31,27 L31,25 C31,24.4477153 31.4477153,24 32,24 L45,24 C45.5522847,24 46,24.4477153 46,25 L46,27 Z" id="Shape"></path>
            <path d="M30,35 C30.5522847,35 31,35.4477153 31,36 L33,36 C32.9947486,34.7332146 32.1943509,33.6062546 31,33.184 L31,32 L29,32 L29,33.184 C27.6234525,33.6688523 26.7973063,35.0758441 27.0446127,36.514178 C27.2919191,37.9525119 28.5405627,39.0027654 30,39 C30.5522847,39 31,39.4477153 31,40 C31,40.5522847 30.5522847,41 30,41 C29.4477153,41 29,40.5522847 29,40 L27,40 C27.0052514,41.2667854 27.8056491,42.3937454 29,42.816 L29,44 L31,44 L31,42.816 C32.3765475,42.3311477 33.2026937,40.9241559 32.9553873,39.485822 C32.7080809,38.0474881 31.4594373,36.9972346 30,37 C29.4477153,37 29,36.5522847 29,36 C29,35.4477153 29.4477153,35 30,35 Z" id="Path"></path>
            <rect id="Rectangle" x="4" y="4" width="11" height="2"></rect>
            <path d="M22.556,17.207 L28.756,13.328 C29.9058196,14.9180844 32.0418724,15.4348008 33.7913265,14.5460579 C35.5407805,13.657315 36.3831728,11.6275138 35.7771015,9.76119899 C35.1710302,7.89488418 33.2968016,6.74728467 31.3589744,7.05595781 C29.4211472,7.36463094 27.9962253,9.03774642 28,11 C28.0068136,11.1402939 28.0208321,11.280145 28.042,11.419 L21.227,15.679 C19.7757125,14.6942513 17.8514083,14.7732379 16.4857085,15.8736148 C15.1200087,16.9739917 14.6335,18.8374549 15.287,20.465 L15.2,20.4 L9.882,27.492 C9.30553663,27.1735593 8.6585552,27.0044228 8,27 C6.15829276,26.9886577 4.54382977,28.2288095 4.07996523,30.0111798 C3.6161007,31.7935501 4.4211831,33.6633923 6.03476445,34.551294 C7.6483458,35.4391957 9.65874365,35.1186214 10.9161581,33.772916 C12.1735726,32.4272106 12.3571922,30.3997118 11.362,28.85 L16.455,22.06 C17.1661429,22.6633016 18.0674323,22.9961944 19,23 C21.209139,23 23,21.209139 23,19 C22.9961697,18.3755942 22.8439878,17.7610399 22.556,17.207 Z M32,9 C33.1045695,9 34,9.8954305 34,11 C34,12.1045695 33.1045695,13 32,13 C30.8954305,13 30,12.1045695 30,11 C30,9.8954305 30.8954305,9 32,9 Z M8,33 C6.8954305,33 6,32.1045695 6,31 C6,29.8954305 6.8954305,29 8,29 C9.1045695,29 10,29.8954305 10,31 C10,32.1045695 9.1045695,33 8,33 Z M19,21 C17.8954305,21 17,20.1045695 17,19 C17,17.8954305 17.8954305,17 19,17 C20.1045695,17 21,17.8954305 21,19 C21,20.1045695 20.1045695,21 19,21 Z" id="Shape"></path>
            <rect id="Rectangle" x="4" y="8" width="4" height="2"></rect>
            <rect id="Rectangle" x="10" y="8" width="2" height="2"></rect>
        </g>
    </g>
</svg>