<?xml version="1.0" encoding="UTF-8"?>
<svg width="47px" height="48px" viewBox="0 0 47 48" version="1.1" xmlns="http://www.w3.org/2000/svg" xmlns:xlink="http://www.w3.org/1999/xlink">
    <!-- Generator: Sketch 55.2 (78181) - https://sketchapp.com -->
    <title>office.5</title>
    <desc>Created with Sketch.</desc>
    <g id="Page-1" stroke="none" stroke-width="1" fill="none" fill-rule="evenodd">
        <g id="10-money-refund" transform="translate(0.000000, -10.000000)" fill="#00A8A5" fill-rule="nonzero">
            <g id="office.5" transform="translate(0.000000, 10.000000)">
                <path d="M17.5001771,24 L13.5001354,24 C12.9481297,24 12.500125,24.4480047 12.500125,25.0000104 L12.500125,29.0000521 C12.500125,29.5520578 12.9481297,30.0000625 13.5001354,30.0000625 L17.5001771,30.0000625 C18.0521828,30.0000625 18.5001875,29.5520578 18.5001875,29.0000521 L18.5001875,25.0000104 C18.5001875,24.4480047 18.0521828,24 17.5001771,24 Z M16.5001667,28.0000417 L14.5001458,28.0000417 L14.5001458,26.0000208 L16.5001667,26.0000208 L16.5001667,28.0000417 Z M17.5001771,32.0000833 L13.5001354,32.0000833 C12.9481297,32.0000833 12.500125,32.448088 12.500125,33.0000937 L12.500125,37.0001354 C12.500125,37.5521412 12.9481297,38.0001458 13.5001354,38.0001458 L17.5001771,38.0001458 C18.0521828,38.0001458 18.5001875,37.5521412 18.5001875,37.0001354 L18.5001875,33.0000937 C18.5001875,32.448088 18.0521828,32.0000833 17.5001771,32.0000833 Z M16.5001667,36.000125 L14.5001458,36.000125 L14.5001458,34.0001042 L16.5001667,34.0001042 L16.5001667,36.000125 Z M17.5001771,15.9999167 L13.5001354,15.9999167 C12.9481297,15.9999167 12.500125,16.4479213 12.500125,16.9999271 L12.500125,20.9999687 C12.500125,21.5519745 12.9481297,21.9999792 13.5001354,21.9999792 L17.5001771,21.9999792 C18.0521828,21.9999792 18.5001875,21.5519745 18.5001875,20.9999687 L18.5001875,16.9999271 C18.5001875,16.4479213 18.0521828,15.9999167 17.5001771,15.9999167 Z M16.5001667,19.9999583 L14.5001458,19.9999583 L14.5001458,17.9999375 L16.5001667,17.9999375 L16.5001667,19.9999583 Z M29.5003021,30.0000625 L33.5003438,30.0000625 C34.0523495,30.0000625 34.5003542,29.5520578 34.5003542,29.0000521 L34.5003542,25.0000104 C34.5003542,24.4480047 34.0523495,24 33.5003438,24 L29.5003021,24 C28.9482963,24 28.5002917,24.4480047 28.5002917,25.0000104 L28.5002917,29.0000521 C28.5002917,29.5520578 28.9482963,30.0000625 29.5003021,30.0000625 Z M30.5003125,26.0000208 L32.5003333,26.0000208 L32.5003333,28.0000417 L30.5003125,28.0000417 L30.5003125,26.0000208 Z M17.5001771,7.99983333 L13.5001354,7.99983333 C12.9481297,7.99983333 12.500125,8.447838 12.500125,8.99984375 L12.500125,12.9998854 C12.500125,13.5518912 12.9481297,13.9998958 13.5001354,13.9998958 L17.5001771,13.9998958 C18.0521828,13.9998958 18.5001875,13.5518912 18.5001875,12.9998854 L18.5001875,8.99984375 C18.5001875,8.447838 18.0521828,7.99983333 17.5001771,7.99983333 Z M16.5001667,11.999875 L14.5001458,11.999875 L14.5001458,9.99985416 L16.5001667,9.99985416 L16.5001667,11.999875 Z M20.5002083,8.99984375 L20.5002083,12.9998854 C20.5002083,13.5518912 20.948213,13.9998958 21.5002188,13.9998958 L25.5002604,13.9998958 C26.0522662,13.9998958 26.5002708,13.5518912 26.5002708,12.9998854 L26.5002708,8.99984375 C26.5002708,8.447838 26.0522662,7.99983333 25.5002604,7.99983333 L21.5002188,7.99983333 C20.948213,7.99983333 20.5002083,8.447838 20.5002083,8.99984375 Z M22.5002292,9.99985416 L24.50025,9.99985416 L24.50025,11.999875 L22.5002292,11.999875 L22.5002292,9.99985416 Z M29.5003021,21.9999792 L33.5003438,21.9999792 C34.0523495,21.9999792 34.5003542,21.5519745 34.5003542,20.9999687 L34.5003542,16.9999271 C34.5003542,16.4479213 34.0523495,15.9999167 33.5003438,15.9999167 L29.5003021,15.9999167 C28.9482963,15.9999167 28.5002917,16.4479213 28.5002917,16.9999271 L28.5002917,20.9999687 C28.5002917,21.5519745 28.9482963,21.9999792 29.5003021,21.9999792 Z M30.5003125,17.9999375 L32.5003333,17.9999375 L32.5003333,19.9999583 L30.5003125,19.9999583 L30.5003125,17.9999375 Z M45.5004688,7.99983333 L38.5003958,7.99983333 L38.5003958,4.99980208 C38.5003958,4.55379743 38.2043928,4.16179335 37.7743883,4.03779206 L23.7742424,0.0377503906 C23.5962406,-0.0122501302 23.4062386,-0.0122501302 23.2262367,0.0377503906 L9.2260909,4.03779206 C8.79608642,4.16179335 8.50008333,4.55379743 8.50008333,4.99980208 L8.50008333,7.99983333 L1.50001042,7.99983333 C0.948004667,7.99983333 0.5,8.447838 0.5,8.99984375 L0.5,47.0002396 C0.5,47.5522453 0.948004667,48.00025 1.50001042,48.00025 L45.5004688,48.00025 C46.0524745,48.00025 46.5004792,47.5522453 46.5004792,47.0002396 L46.5004792,8.99984375 C46.5004792,8.447838 46.0524745,7.99983333 45.5004688,7.99983333 Z M8.50008333,11.999875 L5.50005208,11.999875 C4.94804633,11.999875 4.50004167,12.4478797 4.50004167,12.9998854 C4.50004167,13.5518912 4.94804633,13.9998958 5.50005208,13.9998958 L8.50008333,13.9998958 L8.50008333,17.9999375 L5.50005208,17.9999375 C4.94804633,17.9999375 4.50004167,18.4479422 4.50004167,18.9999479 C4.50004167,19.5519537 4.94804633,19.9999583 5.50005208,19.9999583 L8.50008333,19.9999583 L8.50008333,24 L5.50005208,24 C4.94804633,24 4.50004167,24.4480047 4.50004167,25.0000104 C4.50004167,25.5520162 4.94804633,26.0000208 5.50005208,26.0000208 L8.50008333,26.0000208 L8.50008333,30.0000625 L5.50005208,30.0000625 C4.94804633,30.0000625 4.50004167,30.4480672 4.50004167,31.0000729 C4.50004167,31.5520787 4.94804633,32.0000833 5.50005208,32.0000833 L8.50008333,32.0000833 L8.50008333,36.000125 L5.50005208,36.000125 C4.94804633,36.000125 4.50004167,36.4481297 4.50004167,37.0001354 C4.50004167,37.5521412 4.94804633,38.0001458 5.50005208,38.0001458 L8.50008333,38.0001458 L8.50008333,42.0001875 L5.50005208,42.0001875 C4.94804633,42.0001875 4.50004167,42.4481922 4.50004167,43.0001979 C4.50004167,43.5522037 4.94804633,44.0002083 5.50005208,44.0002083 L8.50008333,44.0002083 L8.50008333,46.0002292 L2.50002083,46.0002292 L2.50002083,9.99985416 L8.50008333,9.99985416 L8.50008333,11.999875 Z M28.5002917,46.0002292 L18.5001875,46.0002292 L18.5001875,42.0001875 L28.5002917,42.0001875 L28.5002917,46.0002292 Z M36.500375,46.0002292 L30.5003125,46.0002292 L30.5003125,41.0001771 C30.5003125,40.4481713 30.0523078,40.0001667 29.5003021,40.0001667 L17.5001771,40.0001667 C16.9481713,40.0001667 16.5001667,40.4481713 16.5001667,41.0001771 L16.5001667,46.0002292 L10.5001042,46.0002292 L10.5001042,5.75380993 L23.5002396,2.03977125 L36.500375,5.75380993 L36.500375,46.0002292 Z M44.5004583,46.0002292 L38.5003958,46.0002292 L38.5003958,44.0002083 L41.5004271,44.0002083 C42.0524328,44.0002083 42.5004375,43.5522037 42.5004375,43.0001979 C42.5004375,42.4481922 42.0524328,42.0001875 41.5004271,42.0001875 L38.5003958,42.0001875 L38.5003958,38.0001458 L41.5004271,38.0001458 C42.0524328,38.0001458 42.5004375,37.5521412 42.5004375,37.0001354 C42.5004375,36.4481297 42.0524328,36.000125 41.5004271,36.000125 L38.5003958,36.000125 L38.5003958,32.0000833 L41.5004271,32.0000833 C42.0524328,32.0000833 42.5004375,31.5520787 42.5004375,31.0000729 C42.5004375,30.4480672 42.0524328,30.0000625 41.5004271,30.0000625 L38.5003958,30.0000625 L38.5003958,26.0000208 L41.5004271,26.0000208 C42.0524328,26.0000208 42.5004375,25.5520162 42.5004375,25.0000104 C42.5004375,24.4480047 42.0524328,24 41.5004271,24 L38.5003958,24 L38.5003958,19.9999583 L41.5004271,19.9999583 C42.0524328,19.9999583 42.5004375,19.5519537 42.5004375,18.9999479 C42.5004375,18.4479422 42.0524328,17.9999375 41.5004271,17.9999375 L38.5003958,17.9999375 L38.5003958,13.9998958 L41.5004271,13.9998958 C42.0524328,13.9998958 42.5004375,13.5518912 42.5004375,12.9998854 C42.5004375,12.4478797 42.0524328,11.999875 41.5004271,11.999875 L38.5003958,11.999875 L38.5003958,9.99985416 L44.5004583,9.99985416 L44.5004583,46.0002292 Z M29.5003021,38.0001458 L33.5003438,38.0001458 C34.0523495,38.0001458 34.5003542,37.5521412 34.5003542,37.0001354 L34.5003542,33.0000937 C34.5003542,32.448088 34.0523495,32.0000833 33.5003438,32.0000833 L29.5003021,32.0000833 C28.9482963,32.0000833 28.5002917,32.448088 28.5002917,33.0000937 L28.5002917,37.0001354 C28.5002917,37.5521412 28.9482963,38.0001458 29.5003021,38.0001458 Z M30.5003125,34.0001042 L32.5003333,34.0001042 L32.5003333,36.000125 L30.5003125,36.000125 L30.5003125,34.0001042 Z M25.5002604,24 L21.5002188,24 C20.948213,24 20.5002083,24.4480047 20.5002083,25.0000104 L20.5002083,29.0000521 C20.5002083,29.5520578 20.948213,30.0000625 21.5002188,30.0000625 L25.5002604,30.0000625 C26.0522662,30.0000625 26.5002708,29.5520578 26.5002708,29.0000521 L26.5002708,25.0000104 C26.5002708,24.4480047 26.0522662,24 25.5002604,24 Z M24.50025,28.0000417 L22.5002292,28.0000417 L22.5002292,26.0000208 L24.50025,26.0000208 L24.50025,28.0000417 Z M25.5002604,32.0000833 L21.5002188,32.0000833 C20.948213,32.0000833 20.5002083,32.448088 20.5002083,33.0000937 L20.5002083,37.0001354 C20.5002083,37.5521412 20.948213,38.0001458 21.5002188,38.0001458 L25.5002604,38.0001458 C26.0522662,38.0001458 26.5002708,37.5521412 26.5002708,37.0001354 L26.5002708,33.0000937 C26.5002708,32.448088 26.0522662,32.0000833 25.5002604,32.0000833 Z M24.50025,36.000125 L22.5002292,36.000125 L22.5002292,34.0001042 L24.50025,34.0001042 L24.50025,36.000125 Z M29.5003021,13.9998958 L33.5003438,13.9998958 C34.0523495,13.9998958 34.5003542,13.5518912 34.5003542,12.9998854 L34.5003542,8.99984375 C34.5003542,8.447838 34.0523495,7.99983333 33.5003438,7.99983333 L29.5003021,7.99983333 C28.9482963,7.99983333 28.5002917,8.447838 28.5002917,8.99984375 L28.5002917,12.9998854 C28.5002917,13.5518912 28.9482963,13.9998958 29.5003021,13.9998958 Z M30.5003125,9.99985416 L32.5003333,9.99985416 L32.5003333,11.999875 L30.5003125,11.999875 L30.5003125,9.99985416 Z M25.5002604,15.9999167 L21.5002188,15.9999167 C20.948213,15.9999167 20.5002083,16.4479213 20.5002083,16.9999271 L20.5002083,20.9999687 C20.5002083,21.5519745 20.948213,21.9999792 21.5002188,21.9999792 L25.5002604,21.9999792 C26.0522662,21.9999792 26.5002708,21.5519745 26.5002708,20.9999687 L26.5002708,16.9999271 C26.5002708,16.4479213 26.0522662,15.9999167 25.5002604,15.9999167 Z M24.50025,19.9999583 L22.5002292,19.9999583 L22.5002292,17.9999375 L24.50025,17.9999375 L24.50025,19.9999583 Z" id="Shape"></path>
            </g>
        </g>
    </g>
</svg>