<?xml version="1.0" encoding="UTF-8"?>
<svg width="48px" height="48px" viewBox="0 0 48 48" version="1.1" xmlns="http://www.w3.org/2000/svg" xmlns:xlink="http://www.w3.org/1999/xlink">
    <!-- Generator: Sketch 55.2 (78181) - https://sketchapp.com -->
    <title>49-web-browser-click</title>
    <desc>Created with Sketch.</desc>
    <g id="Page-1" stroke="none" stroke-width="1" fill="none" fill-rule="evenodd">
        <g id="49-web-browser-click" transform="translate(0.000000, -1.000000)" fill="#00A8A5" fill-rule="nonzero">
            <path d="M47,9 L6,9 C5.44771525,9 5,9.44771525 5,10 C5,10.5522847 5.44771525,11 6,11 L46,11 L46,44 C46,45.6568542 44.6568542,47 43,47 L5,47 C3.34314575,47 2,45.6568542 2,44 L2,6 C2,4.34314575 3.34314575,3 5,3 L42.994,3 C43.8029446,2.9557286 44.592586,3.25734418 45.1660242,3.82963778 C45.7394624,4.40193139 46.042655,5.19096856 46,6 C46,6.55228475 46.4477153,7 47,7 C47.5522847,7 48,6.55228475 48,6 C48.0507877,4.65899217 47.5403311,3.35749997 46.5914156,2.40858443 C45.6425,1.4596689 44.3410078,0.949212331 43,1 L5,1 C2.23994685,1.00330612 0.00330611633,3.23994685 0,6 L0,44 C0.00330611633,46.7600532 2.23994685,48.9966939 5,49 L43,49 C45.7600532,48.9966939 47.9966939,46.7600532 48,44 L48,10 C48,9.44771525 47.5522847,9 47,9 Z" id="Path"></path>
            <path d="M6,5 C5.44771525,5 5,5.44771525 5,6 C5,6.55228475 5.44771525,7 6,7 L8,7 C8.55228475,7 9,6.55228475 9,6 C9,5.44771525 8.55228475,5 8,5 L6,5 Z" id="Path"></path>
            <path d="M12,5 C11.4477153,5 11,5.44771525 11,6 C11,6.55228475 11.4477153,7 12,7 L14,7 C14.5522847,7 15,6.55228475 15,6 C15,5.44771525 14.5522847,5 14,5 L12,5 Z" id="Path"></path>
            <path d="M41,5 C40.4477153,5 40,5.44771525 40,6 C40,6.55228475 40.4477153,7 41,7 L43,7 C43.5522847,7 44,6.55228475 44,6 C44,5.44771525 43.5522847,5 43,5 L41,5 Z" id="Path"></path>
            <path d="M9,14 L6,14 C5.44771525,14 5,14.4477153 5,15 L5,18 C5,18.5522847 5.44771525,19 6,19 C6.55228475,19 7,18.5522847 7,18 L7,16 L9,16 C9.55228475,16 10,15.5522847 10,15 C10,14.4477153 9.55228475,14 9,14 Z" id="Path"></path>
            <path d="M42,19 C42.5522847,19 43,18.5522847 43,18 L43,15 C43,14.4477153 42.5522847,14 42,14 L39,14 C38.4477153,14 38,14.4477153 38,15 C38,15.5522847 38.4477153,16 39,16 L41,16 L41,18 C41,18.5522847 41.4477153,19 42,19 Z" id="Path"></path>
            <path d="M39,44 L42,44 C42.5522847,44 43,43.5522847 43,43 L43,40 C43,39.4477153 42.5522847,39 42,39 C41.4477153,39 41,39.4477153 41,40 L41,42 L39,42 C38.4477153,42 38,42.4477153 38,43 C38,43.5522847 38.4477153,44 39,44 Z" id="Path"></path>
            <path d="M6,39 C5.44771525,39 5,39.4477153 5,40 L5,43 C5,43.5522847 5.44771525,44 6,44 L9,44 C9.55228475,44 10,43.5522847 10,43 C10,42.4477153 9.55228475,42 9,42 L7,42 L7,40 C7,39.4477153 6.55228475,39 6,39 Z" id="Path"></path>
            <path d="M28,37 L30,37 C30.5338153,37.0112942 31.0491116,36.8042094 31.4266605,36.4266605 C31.8042094,36.0491116 32.0112942,35.5338153 32,35 L32,32 L34,32 C34.3635259,32 34.6984185,31.8027241 34.8746446,31.484769 C35.0508706,31.166814 35.0406687,30.7782691 34.848,30.47 L29.848,22.47 C29.6652611,22.1776185 29.3447904,22 29,22 L21,22 C20.4477153,22 20,22.4477153 20,23 C20,23.5522847 20.4477153,24 21,24 L28.445,24 L32.195,30 L31,30 C30.4477153,30 30,30.4477153 30,31 L30,35 L28,35 L28,31 C28,30.4477153 27.5522847,30 27,30 L25.618,30 L26.9,27.447 C27.1468713,26.9527051 26.9462949,26.3518713 26.452,26.105 C25.9577051,25.8581287 25.3568713,26.0587051 25.11,26.553 L23.11,30.553 C22.9554545,30.8622668 22.9716204,31.2294236 23.1527493,31.5239106 C23.3338781,31.8183976 23.6542721,31.9984342 24,32 L26,32 L26,35 C26,36.1045695 26.8954305,37 28,37 Z" id="Path"></path>
            <path d="M17,24 C17.5522847,24 18,23.5522847 18,23 C18,22.4477153 17.5522847,22 17,22 L15,22 C14.4477153,22 14,22.4477153 14,23 C14,23.5522847 14.4477153,24 15,24 L17,24 Z" id="Path"></path>
            <path d="M13,27 C13,27.5522847 13.4477153,28 14,28 L20,28 C20.5522847,28 21,27.5522847 21,27 C21,26.4477153 20.5522847,26 20,26 L14,26 C13.4477153,26 13,26.4477153 13,27 Z" id="Path"></path>
        </g>
    </g>
</svg>