<?xml version="1.0" encoding="UTF-8"?>
<svg width="44px" height="44px" viewBox="0 0 44 44" version="1.1" xmlns="http://www.w3.org/2000/svg" xmlns:xlink="http://www.w3.org/1999/xlink">
    <!-- Generator: Sketch 55.2 (78181) - https://sketchapp.com -->
    <title>server-repair</title>
    <desc>Created with Sketch.</desc>
    <g id="Page-1" stroke="none" stroke-width="1" fill="none" fill-rule="evenodd">
        <g id="server-repair" fill="#00A8A5" fill-rule="nonzero">
            <circle id="Oval" cx="6" cy="6" r="1"></circle>
            <circle id="Oval" cx="10" cy="6" r="1"></circle>
            <path d="M25,40 L25,40 L24.816,40 C24.402,38.839 23.302,38 22,38 L20,38 L20,35 C20,34.448 19.552,34 19,34 C18.448,34 18,34.448 18,35 L18,38 L16,38 C14.698,38 13.598,38.839 13.184,40 L7,40 C6.448,40 6,40.448 6,41 C6,41.552 6.448,42 7,42 L13.184,42 C13.598,43.161 14.698,44 16,44 L22,44 C23.302,44 24.402,43.161 24.816,42 L25.001,42 C25.553,42 26,41.552 26,41 C26,40.448 25.552,40 25,40 Z M22,42 L16,42 C15.449,42 15,41.551 15,41 C15,40.449 15.449,40 16,40 L22,40 C22.551,40 23,40.449 23,41 C23,41.551 22.551,42 22,42 Z" id="Shape"></path>
            <path d="M18,5 C17.448,5 17,5.448 17,6 C17,6.552 17.448,7 18,7 L32,7 C32.553,7 33,6.552 33,6 C33,5.448 32.553,5 32,5 L18,5 Z" id="Path"></path>
            <circle id="Oval" cx="6" cy="26" r="1"></circle>
            <circle id="Oval" cx="10" cy="26" r="1"></circle>
            <path d="M18,25 C17.448,25 17,25.448 17,26 C17,26.552 17.448,27 18,27 L28,27 C28.553,27 29,26.552 29,26 C29,25.448 28.553,25 28,25 L18,25 Z" id="Path"></path>
            <circle id="Oval" cx="6" cy="16" r="1"></circle>
            <circle id="Oval" cx="10" cy="16" r="1"></circle>
            <path d="M32,17 C32.553,17 33,16.552 33,16 C33,15.448 32.553,15 32,15 L18,15 C17.448,15 17,15.448 17,16 C17,16.552 17.448,17 18,17 L32,17 Z" id="Path"></path>
            <path d="M24,31 C24,30.448 23.552,30 23,30 L3,30 C2.449,30 2,29.551 2,29 L2,22.001 L36,22 L36,26 C36,26.552 36.447,27 37,27 C37.553,27 38,26.552 38,26 L38,21 L38,11 C38,10.735 37.895,10.48 37.707,10.293 C37.519,10.106 37.266,10 37,10 L2,10.001 L2,3 C2,2.449 2.449,2 3,2 L35,2 C35.552,2 36,2.449 36,3 L36,7 C36,7.552 36.447,8 37,8 C37.553,8 38,7.552 38,7 L38,3 C38,1.346 36.654,0 35,0 L3,0 C1.346,0 0,1.346 0,3 L0,11 L0,11.001 L0,17 C0,17.552 0.448,18 1,18 C1.552,18 2,17.552 2,17 L2,12.001 L36,12 L36,20 L1,20.001 C0.448,20.001 0,20.449 0,21.001 L0,29 C0,30.654 1.346,32 3,32 L23,32 C23.552,32 24,31.552 24,31 Z" id="Path"></path>
            <path d="M39.515,35.625 C40.32,35.625 41.124,35.319 41.737,34.707 C41.738,34.706 41.739,34.704 41.74,34.702 C41.741,34.701 41.741,34.701 41.742,34.701 L43.713,32.701 C44.101,32.308 44.097,31.675 43.703,31.287 C43.308,30.899 42.676,30.903 42.289,31.298 L40.326,33.29 C40.325,33.291 40.324,33.291 40.323,33.292 C39.878,33.737 39.153,33.737 38.708,33.292 C38.492,33.077 38.373,32.79 38.373,32.485 C38.373,32.18 38.492,31.893 38.708,31.678 L40.703,29.712 C41.097,29.324 41.1,28.691 40.713,28.298 C40.327,27.904 39.694,27.901 39.299,28.287 L37.299,30.258 C37.298,30.259 37.298,30.26 37.297,30.261 C37.296,30.262 37.295,30.262 37.294,30.263 C36.7,30.857 36.373,31.646 36.373,32.485 C36.373,32.978 36.498,33.447 36.711,33.875 L35.41,35.176 C35.102,35.066 34.775,35.019 34.448,35.032 L32.414,33 L33.707,31.707 C34.098,31.316 34.098,30.684 33.707,30.293 L31.707,28.293 C31.316,27.902 30.684,27.902 30.293,28.293 L26.293,32.293 C26.025,32.561 25.932,32.957 26.052,33.316 L27.052,36.316 C27.161,36.645 27.433,36.893 27.771,36.973 C27.847,36.991 27.924,37 28,37 C28.262,37 28.518,36.897 28.707,36.707 L31,34.414 L32.561,35.975 L28.718,39.818 C28.255,40.281 28,40.896 28,41.55 C28,42.204 28.255,42.82 28.718,43.282 C29.181,43.745 29.796,44 30.45,44 C31.104,44 31.72,43.745 32.181,43.282 L36.025,39.439 L40.293,43.707 C40.488,43.902 40.744,44 41,44 C41.256,44 41.512,43.902 41.707,43.707 C42.098,43.316 42.098,42.684 41.707,42.293 L36.988,37.574 C36.99,37.532 37,37.492 37,37.449 C37,37.146 36.94,36.853 36.835,36.578 L38.126,35.287 C38.564,35.504 39.037,35.625 39.515,35.625 Z M28.437,34.149 L28.144,33.27 L31,30.414 L31.586,31 L30.294,32.293 C30.294,32.293 30.294,32.293 30.293,32.293 C30.292,32.293 30.293,32.293 30.293,32.294 L28.437,34.149 Z M34.868,37.768 L30.766,41.869 C30.653,41.983 30.52,42 30.45,42 C30.38,42 30.247,41.983 30.132,41.868 L30.132,41.868 C30.018,41.753 30,41.619 30,41.55 C30,41.48 30.018,41.346 30.132,41.232 L34.234,37.131 C34.347,37.017 34.48,37 34.55,37 C34.62,37 34.753,37.017 34.868,37.132 C34.982,37.246 35,37.38 35,37.449 C35,37.519 34.982,37.653 34.868,37.768 Z" id="Shape"></path>
        </g>
    </g>
</svg>