<?xml version="1.0" encoding="UTF-8"?>
<svg width="48px" height="48px" viewBox="0 0 48 48" version="1.1" xmlns="http://www.w3.org/2000/svg" xmlns:xlink="http://www.w3.org/1999/xlink">
    <!-- Generator: Sketch 55.2 (78181) - https://sketchapp.com -->
    <title>switch-app</title>
    <desc>Created with Sketch.</desc>
    <g id="Page-1" stroke="none" stroke-width="1" fill="none" fill-rule="evenodd">
        <g id="responsive-design" transform="translate(-169.000000, -6.000000)" fill="#00A8A5" fill-rule="nonzero">
            <g id="switch-app" transform="translate(169.000000, 6.000000)">
                <circle id="Oval" cx="5" cy="21" r="1"></circle>
                <circle id="Oval" cx="9" cy="21" r="1"></circle>
                <circle id="Oval" cx="13" cy="21" r="1"></circle>
                <path d="M43,0 L19,0 C16.242,0 14,2.244 14,5 L14,16 L5,16 C2.242,16 0,18.244 0,21 L0,43 C0,45.756 2.242,48 5,48 L29,48 C31.758,48 34,45.756 34,43 L34,32 L43,32 C45.758,32 48,29.756 48,27 L48,5 C48,2.244 45.758,0 43,0 Z M19,2 L43,2 C44.654,2 46,3.346 46,5 L46,8 L16,8 L16,5 C16,3.346 17.346,2 19,2 Z M5,18 L29,18 C30.654,18 32,19.346 32,21 L32,24 L2,24 L2,21 C2,19.346 3.346,18 5,18 Z M32,43 C32,44.654 30.654,46 29,46 L5,46 C3.346,46 2,44.654 2,43 L2,26 L32,26 L32,43 Z M43,30 L34,30 L34,21 C34,18.244 31.758,16 29,16 L16,16 L16,10 L46,10 L46,27 C46,28.654 44.654,30 43,30 Z" id="Shape"></path>
                <circle id="Oval" cx="19" cy="5" r="1"></circle>
                <circle id="Oval" cx="23" cy="5" r="1"></circle>
                <circle id="Oval" cx="27" cy="5" r="1"></circle>
                <path d="M1,14 C1.552,14 2,13.552 2,13 L2,9 C2,7.346 3.346,6 5,6 L6.586,6 L4.292,8.294 C3.902,8.684 3.902,9.318 4.292,9.708 C4.488,9.902 4.744,10 5,10 C5.256,10 5.512,9.902 5.706,9.71 L9.706,5.71 C9.732,5.684 9.744,5.648 9.766,5.62 C9.826,5.546 9.886,5.474 9.922,5.384 C9.958,5.298 9.966,5.208 9.976,5.116 C9.982,5.076 10,5.042 10,5 C10,4.906 9.97,4.822 9.946,4.736 C9.936,4.7 9.938,4.66 9.924,4.624 C9.872,4.496 9.794,4.38 9.694,4.284 L5.706,0.296 C5.316,-0.094 4.682,-0.094 4.292,0.296 C3.902,0.686 3.902,1.32 4.292,1.71 L6.582,4 L5,4 C2.242,4 0,6.244 0,9 L0,13 C0,13.552 0.448,14 1,14 Z" id="Path"></path>
                <path d="M47,34 C46.448,34 46,34.448 46,35 L46,39 C46,40.654 44.654,42 43,42 L41.414,42 L43.706,39.708 C44.096,39.318 44.096,38.684 43.706,38.294 C43.316,37.904 42.682,37.904 42.292,38.294 L38.292,42.294 C38.284,42.302 38.282,42.314 38.272,42.322 C38.192,42.408 38.122,42.506 38.076,42.616 C37.974,42.862 37.974,43.138 38.076,43.384 C38.104,43.45 38.152,43.5 38.192,43.558 C38.226,43.608 38.246,43.662 38.29,43.706 L42.29,47.706 C42.488,47.902 42.744,48 43,48 C43.256,48 43.512,47.902 43.706,47.706 C44.096,47.316 44.096,46.682 43.706,46.292 L41.414,44 L43,44 C45.758,44 48,41.756 48,39 L48,35 C48,34.448 47.552,34 47,34 Z" id="Path"></path>
            </g>
        </g>
    </g>
</svg>