<?xml version="1.0" encoding="UTF-8"?>
<svg width="54px" height="54px" viewBox="0 0 54 54" version="1.1" xmlns="http://www.w3.org/2000/svg" xmlns:xlink="http://www.w3.org/1999/xlink">
    <!-- Generator: Sketch 55.2 (78181) - https://sketchapp.com -->
    <title>cloud-server-1</title>
    <desc>Created with Sketch.</desc>
    <g id="Page-1" stroke="none" stroke-width="1" fill="none" fill-rule="evenodd">
        <g id="responsive-design" transform="translate(-88.000000, 0.000000)" fill="#00A8A5" fill-rule="nonzero">
            <g id="cloud-server-1" transform="translate(88.000000, 0.000000)">
                <path d="M42.4035,13.55175 C40.83975,5.76 33.89625,0 25.875,0 C16.569,0 9,7.56675 9,16.875 C9,17.25525 9.01575,17.64225 9.0495,18.05625 C3.97125,18.594 0,22.905 0,28.125 C0,29.02725 0.144,29.93625 0.4545,30.9825 C0.63225,31.57875 1.25775,31.92525 1.85175,31.743 C2.448,31.5675 2.78775,30.942 2.61225,30.34575 C2.36475,29.511 2.25,28.8045 2.25,28.125 C2.25,23.7825 5.7825,20.25 10.053,20.2455 C10.42425,20.2995 10.908,20.16675 11.15775,19.87875 C11.3715,19.6335 11.46825,19.30725 11.421,18.98325 C11.304,18.1755 11.25,17.505 11.25,16.875 C11.25,8.81325 17.811,2.25 25.875,2.25 C33.09975,2.25 39.3165,7.6455 40.33575,14.8005 C40.4145,15.36525 41.0715,15.759 41.625,15.75 C47.20725,15.75 51.75,20.29275 51.75,25.875 C51.75,30.67875 48.3345,34.8525 43.62975,35.7975 C43.02,35.92125 42.62625,36.513 42.74775,37.12275 C42.85575,37.656 43.326,38.025 43.85025,38.025 C43.9245,38.025 43.99875,38.01825 44.073,38.0025 C49.82625,36.84375 54,31.74525 54,25.875 C54,19.37025 48.95775,14.022 42.4035,13.55175 Z M34.875,47.25 L25.875,47.25 C25.254,47.25 24.75,47.754 24.75,48.375 C24.75,48.996 25.254,49.5 25.875,49.5 L34.875,49.5 C35.496,49.5 36,48.996 36,48.375 C36,47.754 35.496,47.25 34.875,47.25 Z M5.625,47.25 C5.004,47.25 4.5,47.754 4.5,48.375 C4.5,48.996 5.004,49.5 5.625,49.5 C6.246,49.5 6.75,48.99825 6.75,48.375 C6.75,47.75175 6.246,47.25 5.625,47.25 Z M37.125,33.75 L3.375,33.75 C1.51425,33.75 0,35.26425 0,37.125 L0,41.625 C0,42.49125 0.3375,43.2765 0.8775,43.875 C0.3375,44.47575 0,45.25875 0,46.125 L0,50.625 C0,52.488 1.51425,54 3.375,54 L37.125,54 C38.98575,54 40.5,52.48575 40.5,50.625 L40.5,46.125 C40.5,45.25875 40.1625,44.4735 39.6225,43.875 C40.1625,43.2765 40.5,42.49125 40.5,41.625 L40.5,37.125 C40.5,35.26425 38.98575,33.75 37.125,33.75 Z M38.25,50.625 C38.25,51.246 37.746,51.75 37.125,51.75 L3.375,51.75 C2.754,51.75 2.25,51.246 2.25,50.625 L2.25,46.125 C2.25,45.504 2.754,45 3.375,45 L37.125,45 C37.746,45 38.25,45.504 38.25,46.125 L38.25,50.625 Z M38.25,41.625 C38.25,42.246 37.746,42.75 37.125,42.75 L3.375,42.75 C2.754,42.75 2.25,42.246 2.25,41.625 L2.25,37.125 C2.25,36.504 2.754,36 3.375,36 L37.125,36 C37.746,36 38.25,36.504 38.25,37.125 L38.25,41.625 Z M34.875,38.25 L25.875,38.25 C25.254,38.25 24.75,38.754 24.75,39.375 C24.75,39.996 25.254,40.5 25.875,40.5 L34.875,40.5 C35.496,40.5 36,39.996 36,39.375 C36,38.754 35.496,38.25 34.875,38.25 Z M5.625,38.25 C5.004,38.25 4.5,38.754 4.5,39.375 C4.5,39.996 5.004,40.5 5.625,40.5 C6.246,40.5 6.75,39.99825 6.75,39.375 C6.75,38.75175 6.246,38.25 5.625,38.25 Z" id="Shape"></path>
            </g>
        </g>
    </g>
</svg>